<?xml version="1.0" standalone="no"?>
<!DOCTYPE svg PUBLIC "-//W3C//DTD SVG 20010904//EN"
 "http://www.w3.org/TR/2001/REC-SVG-20010904/DTD/svg10.dtd">
<svg version="1.0" xmlns="http://www.w3.org/2000/svg"
 width="1024.000000pt" height="1024.000000pt" viewBox="0 0 1024.000000 1024.000000"
 preserveAspectRatio="xMidYMid meet">
<metadata>
Created by potrace 1.14, written by Peter Selinger 2001-2017
</metadata>
<g transform="translate(0.000000,1024.000000) scale(0.100000,-0.100000)"
fill="#000000" stroke="none">
<path d="M0 5120 l0 -5120 5120 0 5120 0 0 2960 0 2960 -25 -12 c-16 -7 -41
-40 -66 -85 -23 -41 -43 -72 -46 -70 -7 8 -63 -54 -63 -69 0 -23 -1 -28 -13
-49 -6 -11 -11 -23 -12 -27 0 -10 -15 -23 -26 -23 -5 0 -29 -20 -54 -44 -36
-35 -42 -47 -35 -62 6 -9 7 -24 5 -32 -3 -7 1 -20 10 -27 21 -18 19 -30 -13
-68 -30 -35 -49 -35 -71 0 -11 18 -11 20 3 15 21 -8 23 38 2 50 -8 4 -19 26
-25 47 -11 42 -7 50 69 133 26 28 29 37 24 80 -6 43 -3 51 21 76 15 15 33 27
40 27 6 0 20 9 30 20 16 17 20 18 44 5 29 -15 48 -9 48 15 0 29 33 92 45 87 7
-2 27 2 43 11 17 8 37 18 45 22 13 6 15 257 18 2154 l2 2146 -5120 0 -5120 0
0 -5120z m2285 4980 c3 -5 1 -10 -4 -10 -6 0 -11 5 -11 10 0 6 2 10 4 10 3 0
8 -4 11 -10z m4425 -314 c-14 -14 -24 0 -16 21 6 15 8 15 16 3 6 -9 5 -19 0
-24z m-4910 -126 c0 -5 -7 -10 -16 -10 -8 0 -12 5 -9 10 3 6 10 10 16 10 5 0
9 -4 9 -10z m3440 -20 c0 -5 -4 -10 -10 -10 -5 0 -10 5 -10 10 0 6 5 10 10 10
6 0 10 -4 10 -10z m-4780 -60 c0 -5 -2 -10 -4 -10 -3 0 -8 5 -11 10 -3 6 -1
10 4 10 6 0 11 -4 11 -10z m2380 -71 c0 -5 -4 -9 -10 -9 -5 0 -10 7 -10 16 0
8 5 12 10 9 6 -3 10 -10 10 -16z m1854 -251 c13 -7 16 -7 12 1 -7 10 7 16 29
11 6 -1 30 -3 55 -5 25 -2 65 -6 90 -10 25 -3 54 -7 66 -9 11 -1 25 -6 32 -10
7 -4 12 -2 12 3 0 6 5 11 10 11 6 0 10 -8 10 -17 0 -15 2 -16 10 -3 5 8 10 10
10 4 0 -7 18 -22 41 -33 22 -12 38 -17 34 -11 -3 5 -2 10 4 10 5 0 13 -5 16
-10 10 -17 82 -50 91 -42 5 4 2 -2 -6 -12 -14 -18 -14 -19 7 -8 17 9 22 9 27
-3 3 -8 22 -23 43 -33 21 -10 37 -24 35 -32 -3 -11 0 -11 13 0 14 12 16 12 15
-1 -5 -32 0 -40 21 -34 12 4 19 3 16 -2 -6 -10 84 -73 103 -73 7 0 25 -9 41
-21 16 -11 29 -17 29 -13 0 4 9 -5 21 -20 11 -14 26 -26 34 -26 7 0 23 -12 35
-27 12 -16 19 -20 16 -11 -3 12 -1 15 10 11 7 -3 14 -11 14 -18 0 -16 94 -115
108 -115 6 0 14 -9 17 -21 4 -11 9 -18 12 -15 4 3 16 -8 28 -24 12 -16 25 -27
28 -23 4 3 7 -1 7 -10 0 -9 5 -17 10 -17 6 0 10 4 10 9 0 15 50 -13 56 -31 3
-10 12 -18 19 -18 8 0 19 -9 25 -20 8 -15 17 -19 35 -14 23 6 25 3 25 -25 0
-17 3 -31 8 -32 54 -5 80 -21 131 -83 19 -23 31 -33 28 -23 -19 49 -19 51 7
25 14 -15 26 -30 26 -33 0 -10 31 -38 36 -32 3 2 -2 12 -11 21 -9 9 -14 16
-10 16 4 0 24 -19 46 -42 34 -37 43 -40 41 -18 -1 13 67 8 78 -5 7 -8 9 -15 5
-15 -4 0 -2 -7 5 -15 7 -9 9 -19 5 -23 -4 -4 -10 -1 -12 6 -3 6 -9 9 -14 6 -6
-3 -7 5 -3 22 5 19 4 25 -5 20 -6 -4 -9 -12 -6 -17 4 -5 1 -9 -6 -9 -10 0 -10
-3 -1 -12 9 -9 9 -15 -1 -27 -11 -14 -10 -14 6 -2 15 12 20 12 27 2 5 -10 9
-10 15 -2 4 8 11 9 18 2 7 -5 17 -10 22 -10 6 -1 10 -6 10 -13 0 -6 11 -12 24
-13 31 -2 55 -33 40 -52 -9 -10 -15 -10 -25 -2 -11 9 -13 3 -9 -30 5 -51 11
-62 31 -54 12 5 15 0 12 -22 -3 -31 16 -46 26 -20 3 9 2 14 -3 11 -7 -5 -18
25 -25 66 -2 13 -16 21 -16 10 0 -7 -4 -12 -8 -12 -5 0 -9 7 -9 15 0 8 2 13 5
10 11 -10 60 29 55 44 -4 14 -3 14 5 1 8 -10 8 -18 0 -27 -16 -20 -3 -26 16
-8 15 15 16 15 16 0 0 -12 6 -16 20 -12 29 8 24 0 -12 -19 -30 -16 -32 -16
-19 -1 12 15 11 17 -13 15 -14 -1 -28 -9 -31 -16 -3 -9 0 -12 9 -9 10 4 13 -1
11 -19 -1 -13 2 -24 6 -24 5 0 9 6 9 14 0 8 7 16 15 20 16 6 45 -18 45 -37 0
-7 -4 -6 -10 3 -9 13 -14 7 -11 -12 0 -5 -4 -8 -10 -8 -6 0 -9 7 -6 15 4 8 2
17 -3 20 -6 4 -11 1 -11 -4 -2 -15 -4 -23 -14 -44 -4 -10 -5 -21 -1 -24 3 -4
6 1 6 9 0 21 51 31 69 13 8 -8 12 -17 9 -20 -3 -4 -12 0 -19 8 -7 8 -21 12
-31 10 -18 -5 -21 -43 -2 -43 14 0 44 -43 44 -64 0 -8 4 -17 9 -20 5 -4 7 4 5
16 -2 13 -2 17 2 11 3 -8 16 -11 32 -8 25 5 25 5 5 -4 -13 -6 -23 -13 -23 -16
0 -4 5 -3 12 1 8 5 9 0 6 -14 -4 -12 -2 -22 3 -22 5 0 9 -7 9 -15 0 -8 -7 -15
-16 -15 -15 0 -15 -2 0 -25 19 -29 12 -33 -12 -7 -10 10 -13 12 -8 5 5 -7 5
-13 2 -13 -4 0 -1 -6 6 -13 15 -16 51 -10 41 7 -3 6 -3 8 2 4 4 -4 15 -3 24 3
9 7 -4 -7 -29 -31 -25 -23 -38 -40 -30 -37 10 3 16 -2 16 -14 0 -13 -3 -15
-13 -7 -9 7 -13 7 -13 -1 0 -7 -4 -10 -8 -7 -5 3 -9 -1 -9 -9 0 -8 4 -12 9 -9
4 3 8 0 8 -5 0 -6 -5 -11 -12 -11 -6 0 -8 -3 -4 -7 4 -4 -8 -15 -26 -25 -18
-9 -27 -17 -20 -18 7 0 11 -4 7 -9 -3 -6 -19 -8 -35 -6 -17 2 -28 0 -25 -5 3
-5 12 -7 19 -4 7 3 16 -2 19 -10 4 -11 1 -13 -11 -9 -9 3 -14 3 -10 -2 4 -4 0
-13 -9 -20 -13 -10 -14 -17 -5 -43 12 -35 6 -41 -15 -14 -8 11 -12 12 -11 3 2
-7 -3 -16 -11 -19 -8 -3 -11 0 -7 7 10 16 1 14 -13 -3 -10 -12 -7 -14 18 -11
37 5 42 -12 6 -21 -23 -6 -30 -15 -26 -36 2 -13 -11 -9 -31 9 -16 14 -18 14
-13 1 3 -8 17 -21 30 -28 13 -7 22 -16 20 -21 -3 -4 1 -10 7 -13 7 -3 3 -3 -9
0 -18 4 -20 1 -16 -17 4 -15 2 -20 -5 -15 -6 3 -9 15 -7 26 2 11 -1 20 -6 20
-6 0 -7 4 -4 10 4 6 -1 7 -11 3 -11 -4 -13 -8 -6 -11 7 -2 10 -8 6 -13 -3 -5
-1 -9 4 -9 10 0 7 -54 -4 -71 -3 -5 -10 -7 -15 -4 -5 4 -9 0 -9 -8 0 -7 -13
-27 -30 -44 -29 -30 -30 -30 -5 -25 14 2 22 8 20 13 -5 8 29 49 40 49 3 0 5
-7 5 -15 0 -8 -5 -14 -12 -13 -6 2 -14 -8 -18 -22 -4 -15 -13 -24 -23 -24 -13
1 -14 -2 -7 -16 6 -10 7 -25 4 -34 -4 -11 0 -14 16 -11 17 3 19 1 11 -9 -6 -7
-9 -15 -6 -17 2 -3 -4 -5 -15 -5 -10 0 -17 3 -15 6 2 4 -2 7 -10 7 -18 0 -19
-9 -4 -24 7 -7 2 -10 -20 -7 -26 3 -29 1 -19 -10 10 -10 15 -11 20 -2 5 7 8 5
8 -6 0 -10 -6 -18 -12 -18 -9 0 -8 -4 2 -10 13 -9 13 -10 0 -10 -13 -1 -13 -2
0 -13 21 -16 14 -50 -8 -43 -15 5 -15 5 -1 -6 9 -7 15 -23 14 -36 -1 -12 5
-28 14 -35 14 -10 14 -10 3 5 -10 13 -10 17 0 22 10 5 10 7 0 12 -6 3 -9 11
-5 17 8 12 13 33 15 55 2 14 18 17 18 2 0 -5 10 -19 23 -31 22 -21 22 -21 0
-10 -30 15 -31 14 -29 -14 0 -14 6 -23 11 -21 6 2 9 8 8 14 -1 5 7 8 19 4 20
-5 20 -6 3 -19 -18 -12 -18 -13 3 -13 12 0 22 6 22 14 0 8 5 18 10 21 18 11
11 -14 -10 -35 -11 -11 -16 -20 -11 -20 4 0 7 -15 5 -32 -3 -27 -2 -30 7 -15
9 15 13 16 27 5 15 -12 16 -11 3 5 -7 9 -9 17 -3 17 6 0 9 12 7 27 -3 25 -2
26 11 8 12 -17 18 -14 15 7 0 4 6 5 14 2 8 -4 12 -10 9 -15 -8 -14 30 -11 46
4 12 10 12 9 1 -5 -7 -10 -10 -26 -7 -35 6 -17 5 -17 -8 0 -13 17 -14 16 -12
-7 0 -13 4 -22 8 -20 3 2 4 -5 1 -16 -5 -19 -6 -20 -19 -3 -13 17 -13 17 -14
-1 0 -18 -1 -18 -27 -1 -16 10 -25 14 -21 10 4 -5 3 -14 -4 -22 -8 -10 -8 -17
0 -25 6 -6 8 -17 5 -26 -4 -9 -2 -13 4 -9 14 9 19 -9 18 -55 0 -20 2 -35 6
-33 3 3 6 -9 7 -25 1 -29 39 -96 49 -86 3 3 -2 12 -11 21 -18 18 -21 35 -7 35
5 0 13 -9 16 -20 3 -11 11 -20 17 -20 6 0 4 -8 -5 -18 -8 -9 -21 -30 -27 -46
-9 -26 -9 -27 5 -16 8 7 15 17 15 22 0 5 7 16 15 24 8 9 15 11 15 5 0 -5 -4
-13 -10 -16 -13 -8 -13 -45 1 -45 6 0 18 -7 26 -16 13 -12 13 -15 2 -14 -28 4
-39 0 -39 -15 0 -9 7 -15 16 -13 10 2 18 -5 20 -17 3 -24 71 -88 83 -80 5 3 8
-3 7 -12 -2 -10 4 -21 13 -26 9 -4 3 -5 -14 -2 -25 4 -27 3 -12 -6 15 -9 16
-13 6 -27 -11 -14 -11 -15 1 -5 11 10 18 9 33 -5 19 -16 19 -16 13 6 -5 14 -3
22 5 22 7 0 9 -3 6 -7 -4 -3 -2 -12 4 -19 7 -9 4 -14 -12 -19 -21 -7 -22 -8
-5 -21 12 -8 16 -20 12 -36 -3 -13 -3 -17 0 -10 11 24 26 12 22 -18 -4 -24 -1
-30 10 -25 9 3 12 0 9 -9 -7 -17 11 -36 35 -36 10 0 18 -5 18 -11 0 -5 -4 -7
-10 -4 -5 3 -10 1 -10 -4 0 -6 6 -11 13 -12 9 0 9 -2 -1 -6 -6 -2 -9 -9 -6
-14 3 -6 11 -3 17 6 11 14 13 13 25 -6 8 -12 9 -18 4 -15 -6 3 -5 -5 1 -19
l12 -25 3 25 c4 27 22 35 22 10 0 -8 5 -15 11 -15 5 0 7 -5 4 -10 -4 -6 -11
-7 -17 -4 -7 5 -9 -1 -5 -15 4 -17 2 -21 -9 -17 -11 4 -12 2 -1 -14 14 -23 29
-27 21 -6 -3 7 2 16 10 19 11 4 13 0 10 -21 -4 -22 -3 -25 7 -14 20 19 31 14
19 -7 -15 -29 -12 -39 5 -17 14 19 15 19 15 -7 0 -15 4 -27 9 -27 5 0 12 -8
14 -17 4 -16 5 -16 6 -1 0 9 -3 20 -9 23 -5 3 -10 11 -10 17 0 7 6 6 15 -2 8
-7 15 -19 15 -27 0 -10 6 -12 23 -7 22 7 22 7 2 -12 -11 -11 -16 -16 -11 -11
6 4 14 7 18 7 11 0 6 -23 -7 -32 -5 -4 4 -6 20 -4 24 3 30 8 28 25 -2 14 1 20
8 15 6 -3 9 -15 6 -25 -3 -11 -1 -19 4 -19 5 0 7 -12 4 -27 l-6 -28 15 30 c8
17 15 25 15 19 1 -6 8 -11 16 -11 8 0 12 3 10 7 -2 3 6 12 18 20 20 12 21 12
9 -3 -11 -13 -10 -17 7 -27 12 -6 20 -14 20 -18 -3 -20 2 -32 15 -32 8 0 18
-4 21 -10 3 -6 -1 -7 -10 -4 -15 6 -14 3 2 -27 32 -59 63 -98 76 -94 7 3 19 0
27 -5 12 -8 13 -12 2 -19 -11 -7 -10 -9 3 -14 9 -4 13 -3 10 3 -9 15 49 6 62
-10 11 -13 12 -13 13 0 0 13 2 13 9 1 5 -8 18 -12 30 -8 13 3 21 0 21 -8 0 -7
7 -15 15 -18 11 -5 12 -1 5 18 -7 19 -6 23 5 18 8 -3 13 -9 10 -13 -8 -13 6
-40 21 -40 8 0 14 4 14 10 0 5 6 9 13 7 6 -1 11 4 10 11 -4 17 12 15 27 -3 17
-21 27 -19 35 6 6 17 9 19 16 8 7 -11 9 -9 10 6 0 11 3 14 6 8 6 -15 73 -18
73 -3 0 6 5 10 11 10 5 0 7 -4 4 -10 -3 -5 1 -10 9 -10 19 0 21 -17 4 -22 -7
-3 -2 -7 10 -10 16 -4 22 -2 20 7 -4 21 16 20 27 -1 6 -11 16 -19 23 -20 6 -1
21 -2 31 -2 12 -1 21 -11 24 -24 3 -16 5 -13 6 11 l1 34 34 -38 c19 -20 39
-34 45 -30 7 3 10 1 9 -6 -2 -6 4 -14 12 -16 11 -3 12 -2 2 5 -10 7 -9 13 5
28 10 11 14 14 10 7 -12 -17 -2 -30 27 -35 17 -4 26 0 28 10 2 12 10 9 36 -13
28 -23 35 -25 50 -14 9 7 14 9 10 5 -5 -5 2 -15 15 -21 17 -10 27 -9 43 1 18
11 25 11 40 -1 11 -8 14 -15 7 -15 -6 0 -15 5 -18 10 -4 6 -11 7 -17 4 -7 -5
-2 -11 12 -16 17 -6 28 -4 42 8 10 10 21 14 25 11 3 -4 2 -7 -4 -7 -6 0 -14
-7 -17 -16 -3 -8 -2 -12 3 -9 5 3 13 1 16 -5 4 -6 13 -3 23 10 19 23 47 14 32
-10 -7 -10 -10 -11 -10 -2 0 6 -4 12 -8 12 -5 0 -9 -6 -9 -14 0 -14 25 -14 50
0 6 4 3 -3 -8 -17 -17 -20 -17 -21 -2 -9 16 12 20 12 28 -1 5 -8 9 -9 9 -3 0
6 11 16 25 22 17 8 25 8 25 1 0 -6 5 -7 10 -4 6 3 10 1 10 -5 0 -7 -7 -10 -15
-7 -8 4 -17 2 -20 -3 -3 -5 11 -12 32 -16 21 -4 41 -12 45 -18 5 -7 8 -7 8 2
0 8 9 12 23 10 18 -3 22 1 20 25 -1 15 2 27 8 27 5 0 8 -3 8 -7 -3 -20 2 -24
16 -13 20 17 38 1 24 -20 -9 -13 -10 -12 -5 3 7 22 -7 22 -25 0 -12 -14 -12
-16 0 -8 11 6 13 4 9 -7 -6 -13 -2 -13 33 -1 27 9 46 10 58 3 10 -5 21 -7 24
-3 4 3 15 0 24 -8 16 -13 17 -12 5 3 -10 12 -10 18 -1 23 6 4 15 2 19 -5 4 -6
11 -11 16 -11 22 2 51 -14 86 -48 37 -35 38 -37 26 -73 -6 -21 -14 -35 -18
-33 -12 7 -71 -61 -73 -84 -1 -11 -5 -21 -9 -21 -4 0 -17 -9 -28 -20 -28 -28
-82 -57 -116 -64 -81 -14 -124 -31 -124 -49 0 -15 -45 -57 -61 -57 -15 0 -91
-79 -108 -112 -13 -25 -20 -28 -62 -28 -26 0 -50 -4 -54 -9 -5 -9 -58 -8 -210
4 -112 10 -171 30 -135 48 6 3 5 4 -2 3 -7 -2 -25 5 -40 16 -17 12 -33 16 -40
11 -18 -11 -91 -13 -104 -2 -8 6 -14 3 -19 -8 -6 -17 -7 -17 -16 0 -12 21 -38
22 -45 3 -4 -9 -15 -13 -31 -10 -19 4 -26 0 -30 -16 -6 -21 -18 -26 -28 -10
-4 6 -15 6 -31 0 -14 -6 -30 -8 -35 -4 -5 3 -9 1 -9 -4 0 -5 -11 -14 -25 -20
-19 -9 -25 -9 -25 1 -1 7 -6 5 -14 -5 -7 -10 -18 -18 -25 -18 -6 0 -11 -5 -11
-10 0 -6 -15 -8 -37 -4 -21 3 -44 6 -50 6 -16 2 -17 10 -3 24 6 6 3 16 -10 27
-17 14 -20 15 -20 2 0 -13 -4 -14 -21 -4 -15 7 -19 8 -15 0 9 -14 -26 -2 -36
13 -6 8 -11 6 -17 -3 -8 -12 -12 -12 -26 3 -13 13 -20 14 -31 5 -10 -8 -14 -8
-14 0 0 6 -13 11 -30 11 -17 0 -30 5 -30 13 0 8 -4 7 -10 -3 -5 -8 -10 -11
-10 -6 0 5 -7 3 -15 -4 -12 -10 -15 -9 -15 4 0 14 -4 15 -20 6 -14 -8 -20 -8
-20 0 0 6 -4 9 -9 6 -12 -8 -58 10 -77 28 -10 11 -11 15 -1 19 6 2 -5 7 -25
11 -21 4 -38 11 -38 17 0 6 -4 8 -10 4 -5 -3 -14 13 -20 35 -12 45 -33 56 -25
13 5 -26 5 -27 -5 -5 -5 13 -17 33 -26 45 l-16 22 6 -25 6 -25 -12 24 c-11 21
-9 26 12 43 14 11 24 28 22 37 -3 12 0 11 12 -4 20 -26 20 -15 0 35 -9 23 -14
43 -12 45 3 3 11 -13 18 -35 13 -39 30 -54 30 -26 0 20 39 46 67 46 13 0 23 5
23 10 0 6 7 10 15 10 9 0 20 10 25 23 5 12 9 16 9 9 1 -7 6 -10 11 -7 6 4 8
11 5 16 -4 5 -1 9 4 9 6 0 11 -8 11 -17 1 -14 4 -12 15 7 9 15 14 19 15 10 0
-10 3 -11 8 -4 9 13 54 26 46 13 -3 -5 1 -9 9 -9 8 0 18 7 21 16 3 8 10 13 15
10 5 -3 15 2 22 11 12 15 11 16 -9 11 -12 -4 -20 -2 -16 3 10 17 43 9 49 -12
6 -17 9 -19 16 -8 7 12 9 12 9 0 0 -8 2 -12 5 -9 7 7 -15 68 -25 68 -4 0 -10
9 -13 20 -3 13 -11 18 -20 14 -11 -4 -14 2 -11 22 1 15 -4 40 -12 56 -8 15
-13 38 -11 50 2 13 2 17 0 11 -3 -7 -9 -13 -14 -13 -13 0 -11 -44 4 -60 10
-12 9 -12 -5 -1 -14 11 -17 9 -21 -16 -2 -15 -4 5 -3 46 1 55 -3 75 -13 79
-11 4 -13 -9 -9 -68 6 -76 -5 -77 -16 -2 -5 39 -21 82 -30 82 -3 0 2 -23 10
-52 20 -78 9 -70 -18 12 -12 40 -27 71 -33 69 -5 -2 -9 -9 -7 -16 5 -21 -8
-15 -19 10 -5 12 -21 38 -35 56 -13 19 -22 41 -19 48 2 8 -2 16 -10 19 -8 4
-15 15 -15 25 0 11 -13 33 -30 49 -16 15 -34 43 -39 62 l-11 33 5 -40 5 -40
-20 40 c-11 22 -18 32 -15 22 3 -11 0 -17 -8 -16 -27 3 -37 -2 -38 -18 -1 -16
-2 -16 -6 0 -3 11 3 24 14 32 15 11 16 16 5 27 -11 11 -13 10 -10 -2 2 -8 -3
-14 -9 -13 -8 2 -13 -7 -13 -22 0 -14 -3 -25 -7 -25 -12 0 -10 54 1 62 6 4 7
10 3 15 -11 10 -27 -17 -27 -46 0 -23 -1 -24 -20 -6 -19 17 -20 17 -20 -1 0
-10 -5 -26 -11 -34 -8 -12 -9 -10 -4 8 5 17 2 22 -13 22 -11 0 -23 -6 -26 -12
-3 -7 -3 -1 0 14 3 14 -1 38 -9 54 l-14 27 1 -30 c0 -17 4 -29 9 -26 12 7 8
-12 -5 -25 -7 -7 -20 -12 -30 -12 -16 0 -20 -6 -17 -26 2 -15 -26 -22 -41 -11
-10 8 -9 5 3 -9 21 -25 23 -41 2 -24 -13 11 -14 10 -9 -6 11 -31 44 -74 57
-74 6 0 -2 14 -18 30 -16 17 -25 30 -21 30 4 0 24 -18 45 -40 34 -36 42 -53
15 -32 -5 4 2 -4 16 -19 26 -26 80 -100 101 -141 14 -28 9 -24 -30 26 -40 50
-40 38 -1 -19 17 -24 30 -49 30 -55 0 -6 11 -22 25 -36 14 -14 23 -29 20 -34
-3 -5 4 -11 15 -15 11 -3 20 -14 20 -23 0 -15 -2 -15 -10 -2 -7 11 -12 12 -20
4 -8 -8 -7 -22 5 -50 9 -21 17 -59 19 -83 3 -43 3 -43 -11 -20 l-14 24 5 -25
c2 -14 7 -36 10 -50 6 -25 6 -25 -5 -2 -16 30 -31 28 -19 -4 12 -32 12 -34 0
-34 -5 0 -10 8 -10 18 0 9 -5 24 -11 32 -8 12 -9 11 -6 -5 10 -42 16 -79 10
-66 -4 9 -7 10 -13 2 -3 -7 -7 2 -7 19 0 17 -4 35 -9 40 -16 16 -9 -48 14
-128 12 -40 17 -70 11 -67 -5 4 -9 14 -10 23 0 9 -9 35 -20 57 -12 24 -17 30
-14 15 3 -14 10 -51 16 -84 5 -32 16 -74 24 -94 8 -19 15 -37 15 -41 0 -12
-37 55 -43 79 -4 14 -16 36 -28 50 l-20 25 14 -30 c23 -48 31 -79 18 -71 -8 5
-8 0 -1 -18 10 -28 3 -59 -11 -50 -16 10 -10 -24 16 -83 21 -49 22 -54 5 -33
-11 14 -26 39 -35 56 -8 18 -22 34 -30 38 -8 3 -15 16 -15 28 0 18 -2 20 -9 9
-6 -9 -6 -22 0 -32 15 -29 1 -51 -24 -39 -17 8 -16 6 3 -7 14 -10 56 -47 94
-84 l70 -67 -40 0 c-27 0 -50 8 -74 26 -19 14 -29 18 -21 9 9 -12 11 -21 4
-28 -11 -11 -53 8 -80 37 -10 11 -14 14 -10 7 10 -15 0 -36 -14 -28 -5 4 -9 2
-9 -3 0 -12 -50 -3 -69 12 -11 8 -13 8 -7 -1 11 -20 -8 -15 -32 7 -12 12 -22
31 -22 43 0 12 -11 51 -23 87 -35 97 -36 98 -33 62 2 -18 8 -38 14 -44 7 -7
12 -19 12 -27 0 -11 -4 -10 -14 5 -8 11 -26 19 -43 19 -27 0 -28 2 -31 57 -2
38 2 68 13 88 15 30 15 30 -10 30 -19 0 -25 -5 -26 -22 -1 -22 -1 -22 -8 2 -4
14 -14 24 -21 22 -7 -2 -10 3 -7 12 4 9 1 18 -5 22 -7 4 -8 3 -4 -4 5 -8 0
-12 -13 -12 -12 0 -20 3 -20 8 1 4 1 14 0 22 -1 13 -2 13 -11 0 -9 -13 -10
-13 -11 0 -1 8 -1 21 0 28 1 6 -2 12 -8 12 -5 0 -21 23 -35 52 -22 44 -34 47
-27 5 1 -5 -3 -6 -9 -2 -5 3 -10 17 -10 30 0 13 -8 29 -17 34 -10 6 -12 11 -6
11 9 0 10 7 3 24 -16 42 -24 146 -11 146 6 0 11 9 11 20 0 11 -5 20 -11 20 -7
0 -8 14 -4 41 5 27 4 39 -3 35 -5 -3 -12 1 -16 9 -3 9 0 15 9 15 25 0 17 17
-11 24 l-26 7 25 19 c33 26 57 25 101 -5 21 -14 35 -21 31 -15 -3 5 -2 10 4
10 5 0 13 -5 16 -11 5 -7 73 -7 80 1 4 4 -1 38 -5 35 -3 -2 -24 34 -48 79 -26
51 -54 91 -74 106 -18 12 -44 36 -57 52 -16 20 -29 27 -42 23 -15 -5 -19 -1
-20 17 0 13 -3 17 -6 11 -8 -21 -23 -15 -24 10 0 21 -1 21 -9 2 -5 -11 -9 -14
-9 -7 -1 14 -31 49 -31 36 0 -4 -8 0 -18 9 -10 10 -21 15 -24 12 -3 -3 -11 1
-18 10 -7 8 -19 15 -26 15 -8 0 -14 5 -14 10 0 6 -8 10 -17 8 -12 -2 -19 7
-26 35 -5 20 -13 37 -19 37 -5 0 -6 -4 -3 -10 3 -5 1 -10 -4 -10 -6 0 -11 6
-11 14 0 8 -5 18 -12 22 -6 4 -8 3 -5 -3 4 -6 0 -14 -9 -17 -28 -11 -42 -6
-47 14 -3 11 -11 19 -19 18 -7 -2 -12 3 -10 10 1 8 -2 11 -9 6 -12 -7 -78 59
-96 98 -11 21 -12 22 -12 3 -1 -12 -6 -26 -12 -32 -16 -16 -17 -93 -1 -93 7 0
10 5 6 12 -4 7 -3 8 5 4 8 -6 9 -12 2 -20 -11 -13 -5 -26 11 -26 5 0 6 5 3 10
-10 16 11 12 25 -5 11 -13 10 -14 -4 -9 -24 9 -19 -11 10 -43 l26 -28 -16 28
c-20 33 -11 36 15 5 17 -21 18 -21 12 -3 -6 18 -5 18 10 7 13 -11 14 -17 4
-33 -7 -12 -19 -18 -30 -15 -14 3 -16 1 -7 -9 6 -7 8 -20 4 -29 -3 -9 0 -24 7
-33 13 -15 12 -15 -8 -4 -15 7 -23 21 -23 37 0 14 -4 22 -10 19 -5 -3 -10 1
-10 10 0 11 -5 15 -16 11 -8 -3 -12 -2 -9 4 10 16 -21 11 -35 -5 -7 -9 -15
-13 -17 -11 -6 6 35 46 47 46 6 0 10 -4 10 -8 0 -4 9 -8 21 -8 19 0 19 1 3 13
-10 7 -22 13 -27 13 -4 0 -5 6 -1 13 6 9 4 9 -7 1 -8 -6 -23 -14 -33 -18 -20
-7 -20 -7 -1 14 16 18 17 23 5 30 -8 5 -18 6 -24 3 -5 -3 -6 -1 -2 5 9 15 -31
68 -58 77 -20 7 -20 8 3 12 13 3 27 -1 32 -9 6 -9 9 -9 9 -1 0 6 -5 15 -10 18
-6 4 -7 12 -4 18 4 7 4 9 -1 5 -8 -7 -23 14 -38 55 -6 15 -4 16 14 7 11 -6 17
-15 14 -20 -3 -6 1 -7 10 -4 12 5 6 13 -25 36 -36 27 -56 49 -29 32 8 -5 8 -1
0 12 -27 48 -68 99 -78 99 -6 0 -15 4 -20 9 -5 5 -3 6 5 2 6 -4 12 -3 12 1 0
5 -12 13 -27 19 -25 9 -25 10 -8 24 17 13 18 13 13 -1 -4 -10 -1 -16 8 -16 10
0 12 7 8 20 -4 14 -3 17 6 12 9 -5 11 -4 6 4 -4 6 -11 9 -16 6 -4 -3 -6 3 -4
12 2 10 -5 29 -17 43 -18 23 -19 23 -9 3 13 -27 -1 -31 -25 -7 -10 10 -13 24
-9 36 4 14 2 18 -5 14 -6 -4 -11 -3 -11 3 0 5 -3 18 -7 28 -4 11 2 8 15 -9 14
-16 20 -33 16 -45 -5 -15 -4 -15 5 -3 11 16 6 46 -12 69 -6 7 -12 21 -12 30
-1 9 -3 30 -4 46 l-3 30 -9 -32 c-5 -18 -14 -33 -20 -33 -6 0 -6 7 1 19 13 25
-17 61 -32 39 -8 -10 -9 -9 -5 3 3 9 0 22 -6 29 -10 10 -8 10 9 2 24 -12 39
-5 25 12 -4 6 -11 21 -14 34 -5 20 -3 22 11 10 16 -12 16 -11 1 7 -9 11 -21
35 -27 53 -6 18 -20 45 -32 59 -21 27 -26 53 -11 53 5 0 16 -10 25 -22 8 -13
4 4 -10 36 -14 32 -24 68 -23 80 1 12 -5 38 -14 60 -17 38 -15 62 4 50 5 -3 7
-9 4 -14 -3 -5 4 -24 16 -42 12 -18 19 -25 15 -15 -6 20 4 22 23 5 7 -7 -1 14
-18 46 -17 32 -31 66 -31 74 0 8 -9 31 -21 51 -19 33 -19 34 -1 14 11 -12 23
-19 27 -15 5 4 5 1 1 -6 -4 -7 -1 -15 9 -18 9 -4 24 -23 35 -43 10 -20 19 -30
20 -22 0 7 -14 39 -31 70 -17 31 -23 47 -14 36 9 -11 24 -19 33 -17 13 2 14 1
4 -6 -11 -8 -11 -15 5 -42 48 -86 55 -93 51 -59 -2 16 2 24 12 24 8 0 14 -7
12 -15 -3 -12 -1 -13 9 -2 16 15 29 16 29 1 0 -5 -4 -7 -10 -4 -19 12 -10 -4
21 -34 37 -37 47 -40 25 -6 -19 30 -21 41 -3 26 18 -15 29 -3 17 19 -10 18 -3
33 11 24 4 -2 6 -11 3 -18 -3 -7 2 -19 11 -26 13 -11 18 -11 28 0 9 9 9 11 0
6 -6 -3 -14 -2 -18 4 -7 11 0 12 32 4 13 -4 21 -10 18 -14 -3 -5 -1 -11 5 -15
5 -3 10 -1 10 4 0 17 27 13 34 -4 4 -11 13 -14 32 -9 19 5 25 4 20 -5 -4 -6
-11 -9 -16 -6 -5 3 -11 1 -14 -4 -3 -5 6 -11 19 -14 14 -2 23 -2 21 1 -3 2 4
16 14 30 18 22 19 27 6 41 -14 15 -13 17 7 18 12 0 16 -1 9 -4 -18 -7 -4 -23
16 -17 13 4 14 3 4 -4 -19 -13 14 -45 40 -38 11 2 17 2 14 -1 -8 -9 13 -43 28
-43 7 0 13 7 13 15 0 11 -4 12 -14 3 -11 -8 -12 -7 -7 6 3 9 15 16 26 16 10 0
16 -4 13 -10 -3 -6 1 -7 10 -3 13 5 14 7 3 14 -10 7 -9 9 5 9 10 0 15 4 12 10
-3 5 0 7 8 4 9 -3 16 3 20 16 4 17 3 19 -8 10 -9 -8 -15 -8 -20 0 -3 5 1 13
10 16 12 5 13 9 3 21 -10 12 -8 18 12 34 14 10 19 19 12 19 -7 0 -10 5 -6 12
4 7 3 8 -5 4 -6 -4 -8 -12 -5 -18 4 -7 2 -8 -4 -4 -7 4 -9 18 -6 33 5 18 3 24
-5 19 -6 -4 -11 -2 -11 4 0 6 -4 8 -10 5 -6 -3 -7 1 -3 10 4 12 8 13 13 5 5
-8 9 -4 13 10 4 16 2 20 -8 16 -21 -8 -29 13 -8 22 10 4 19 13 21 21 3 12 0
12 -12 2 -12 -10 -14 -9 -9 9 4 13 0 26 -8 31 -11 7 -11 9 -1 9 7 0 10 5 7 10
-4 6 1 22 10 37 9 14 13 23 7 19 -5 -3 -9 6 -9 20 0 18 4 24 14 20 8 -3 11 -1
8 4 -3 6 -14 10 -23 10 -13 0 -13 2 4 16 18 15 18 15 -5 10 -18 -4 -21 -2 -12
7 17 17 13 26 -11 20 -23 -5 -23 -5 -3 11 11 10 15 15 9 12 -13 -7 -37 18 -27
27 3 4 1 7 -5 7 -7 0 -12 5 -12 10 0 6 7 10 15 10 8 0 15 -4 15 -8 0 -20 57
-39 110 -35 105 7 144 14 129 24 -9 7 -1 8 26 4 31 -4 36 -3 20 5 -17 9 -14
10 13 5 17 -2 32 0 32 5 0 5 7 7 15 4 20 -8 84 13 310 102 299 119 311 124
360 155 53 34 64 53 41 78 -9 10 -16 23 -16 30 0 17 -56 38 -125 46 -33 4
-103 16 -155 27 -194 39 -254 46 -370 42 -113 -5 -190 -10 -200 -14 -3 -1 -21
-4 -40 -5 -43 -4 -68 -10 -140 -29 -30 -8 -84 -22 -120 -31 -36 -9 -84 -26
-108 -37 -40 -20 -42 -22 -26 -40 10 -10 14 -21 11 -24 -9 -9 -37 15 -37 32 0
20 -13 17 -30 -6 -8 -11 -24 -20 -37 -20 -12 0 -26 -7 -30 -15 -8 -14 -129
-38 -145 -28 -15 9 -8 -7 12 -25 21 -19 21 -19 -8 -18 -20 1 -28 5 -24 14 4
12 1 12 -15 1 -11 -6 -20 -19 -19 -27 0 -8 -6 -17 -14 -19 -13 -4 -13 -3 0 6
8 6 11 11 5 11 -5 0 -23 -12 -40 -26 -21 -17 -23 -22 -8 -15 28 14 43 14 23 1
-13 -9 -12 -13 9 -30 13 -11 29 -20 35 -20 7 0 13 -7 13 -15 0 -11 -4 -12 -11
-5 -17 17 -44 11 -51 -10 -5 -16 -15 -20 -46 -20 -38 0 -46 -11 -40 -52 0 -4
-6 -5 -14 -2 -18 7 -19 -3 -2 -21 31 -32 43 -52 40 -62 -2 -6 6 -20 17 -31 16
-15 18 -22 9 -27 -8 -5 -10 -4 -5 3 7 11 3 13 -36 16 -7 1 -13 -7 -13 -16 0
-30 -12 -30 -35 2 -12 16 -25 28 -30 25 -4 -3 -13 9 -20 26 -7 16 -27 46 -45
66 -18 21 -32 42 -31 48 2 5 1 7 -1 2 -3 -4 -25 12 -49 35 -25 23 -51 46 -59
51 -8 4 -24 28 -35 52 -11 24 -51 74 -90 112 -63 60 -71 72 -70 103 4 94 0
119 -26 147 -15 15 -21 20 -14 11 10 -15 10 -18 -1 -18 -8 0 -19 10 -24 23
-15 33 -75 31 -91 -3 -21 -43 -64 -140 -64 -145 0 -3 -13 -24 -30 -46 -31 -44
-63 -120 -86 -207 -8 -29 -30 -88 -50 -130 -37 -78 -39 -93 -30 -209 2 -24 0
-62 -5 -85 -11 -48 -69 -168 -81 -168 -4 0 -8 -6 -8 -12 0 -7 -16 -28 -35 -47
-20 -19 -38 -45 -41 -58 -4 -12 -12 -23 -20 -23 -8 0 -14 -4 -14 -10 0 -16
-34 -45 -57 -48 -18 -3 -24 5 -35 45 l-14 48 -28 -80 c-28 -79 -33 -95 -36
-125 -1 -8 -5 -4 -9 9 -4 14 -13 26 -21 29 -13 3 -13 2 0 -7 8 -6 13 -11 10
-12 -49 -8 -62 -6 -67 9 -3 9 -12 24 -19 32 -7 8 -14 20 -16 25 -2 6 -11 9
-20 8 -9 -2 -19 5 -22 15 -2 9 -4 2 -3 -17 1 -21 -3 -36 -12 -39 -8 -2 -11 0
-8 5 4 6 -3 20 -14 31 -11 12 -15 22 -10 22 6 0 15 -8 20 -17 9 -16 10 -16 11
5 0 12 -5 22 -11 22 -5 0 -8 4 -5 9 3 4 -1 17 -8 27 -13 17 -14 17 -9 -7 3
-18 0 -28 -11 -32 -13 -5 -15 -3 -7 12 11 20 5 31 -17 31 -10 0 -13 -8 -10
-25 6 -28 -3 -32 -22 -10 -9 10 -9 15 -1 15 6 0 11 11 11 24 0 19 4 23 20 19
12 -3 20 0 20 6 0 7 -4 10 -9 7 -14 -9 -42 5 -34 17 3 6 1 7 -6 3 -6 -4 -9
-12 -6 -17 4 -5 0 -9 -7 -10 -7 0 -21 -2 -30 -4 -15 -3 -16 0 -7 17 9 17 13
18 20 7 6 -9 7 -4 3 16 -4 17 -11 35 -16 40 -6 6 -7 3 -3 -10 6 -16 5 -17 -4
-5 -6 8 -8 24 -5 35 4 16 3 17 -5 5 -10 -14 -15 -7 -12 13 1 5 -3 6 -8 3 -5
-4 -12 0 -14 6 -3 8 -6 6 -6 -4 -1 -10 4 -18 9 -18 6 0 10 -3 10 -7 0 -5 -11
-8 -24 -8 -16 0 -22 5 -21 15 2 8 4 19 4 23 1 4 10 11 22 15 20 8 20 9 3 23
-10 7 -15 9 -12 4 4 -6 -2 -16 -13 -23 -16 -10 -21 -10 -25 3 -3 8 -10 12 -15
9 -5 -3 -9 0 -9 5 0 17 18 13 29 -6 10 -17 12 -15 15 17 2 22 -16 31 -33 17
-12 -10 -13 -9 -7 1 4 7 4 18 -1 25 -5 7 -9 19 -8 27 0 8 -3 18 -8 21 -11 8
-1 29 13 29 5 0 7 -7 4 -15 -4 -8 -1 -15 5 -15 6 0 11 4 11 10 0 17 -36 70
-43 63 -4 -3 -7 6 -7 20 0 17 -5 27 -15 27 -11 0 -12 5 -5 26 13 33 13 34 -5
28 -8 -4 -15 -1 -15 6 0 6 5 8 12 4 8 -5 9 -2 5 9 -3 10 -2 17 2 17 5 0 12 -6
14 -12 4 -10 6 -10 6 -1 1 7 -8 17 -19 23 -14 8 -20 8 -20 0 0 -6 -5 -8 -11
-4 -8 4 -7 9 2 15 12 8 12 10 0 18 -9 6 -10 11 -2 15 6 4 9 11 6 16 -3 5 4 7
15 5 11 -2 18 0 15 6 -4 5 -11 7 -16 4 -5 -4 -9 -2 -9 2 0 5 -11 10 -26 11
-17 1 -23 -2 -18 -10 4 -7 3 -8 -4 -4 -16 10 -3 36 14 29 12 -4 13 0 5 21 -7
17 -7 27 1 32 7 4 8 3 4 -4 -3 -6 2 -16 13 -22 15 -7 22 -7 27 2 4 7 4 10 -1
6 -5 -5 -15 1 -23 13 -8 11 -20 18 -28 15 -8 -3 -14 -1 -14 4 0 6 4 10 10 10
6 0 5 11 -2 26 -10 22 -10 28 5 39 23 17 23 56 0 49 -14 -5 -15 -4 -4 4 8 6
11 16 8 24 -3 8 1 15 9 16 8 1 21 3 29 4 8 1 12 5 9 10 -3 4 0 8 7 8 7 0 9 3
6 6 -4 4 -12 2 -19 -4 -10 -8 -13 -4 -13 18 -1 16 3 26 7 24 8 -5 9 -4 13 36
3 30 -14 43 -35 27 -9 -7 -7 -3 3 10 11 12 25 19 33 16 8 -3 14 0 14 7 0 6 5
8 12 4 7 -5 8 -3 3 6 -5 8 1 20 16 32 22 18 22 18 2 9 -14 -7 -24 -8 -28 -1
-9 15 4 32 18 23 8 -4 7 -1 -1 9 -10 13 -10 17 0 22 7 3 4 4 -8 1 -12 -3 -27
1 -34 10 -7 9 -8 15 -2 15 6 0 13 -6 15 -12 5 -11 8 5 7 27 -1 11 29 35 41 33
6 -2 14 3 16 10 4 9 -1 10 -20 3 -19 -7 -28 -6 -37 4 -9 11 -7 12 9 8 12 -3
21 -1 21 6 0 6 -5 11 -11 11 -8 0 -8 4 -1 13 14 16 -11 52 -30 42 -7 -3 -5 0
5 8 9 8 17 22 17 31 0 14 2 15 14 4 13 -11 13 -15 1 -24 -12 -9 -9 -17 18 -48
l33 -37 -3 40 c-2 34 0 40 15 36 9 -3 4 1 -12 8 -20 10 -24 16 -15 19 8 3 23
1 33 -5 16 -8 18 -6 13 8 -4 9 -1 26 5 38 7 12 13 24 13 27 11 47 18 58 33 53
13 -4 12 -1 -3 10 -18 15 -18 16 -2 17 9 0 17 8 17 18 0 13 -2 14 -9 3 -5 -8
-11 -9 -15 -3 -3 5 1 13 10 16 10 4 14 12 10 23 -6 15 -5 15 12 0 19 -17 19
-17 16 22 -3 34 -1 39 14 34 15 -6 15 -5 3 10 -12 15 -9 21 11 19 3 -1 11 5
18 12 8 11 8 16 -1 22 -7 4 -9 3 -5 -4 3 -6 2 -13 -4 -17 -15 -9 -12 21 3 34
8 6 18 7 22 3 5 -4 5 -2 2 4 -4 6 3 20 16 30 19 16 20 17 8 1 -8 -9 -12 -19
-9 -22 2 -2 12 9 22 25 17 30 17 30 -6 31 -19 1 -17 3 10 11 32 11 44 28 20
28 -11 1 18 23 32 25 3 1 21 16 40 35 19 18 29 30 23 26 -9 -5 -11 -2 -7 9 5
13 9 13 22 3 13 -11 14 -11 7 1 -6 11 -4 13 7 8 9 -3 15 0 15 6 -1 38 6 53 28
64 16 7 27 8 31 1 4 -5 18 1 33 14 14 14 39 32 54 42 16 10 26 24 25 34 -2 13
3 16 21 14 16 -3 21 0 15 9 -5 8 -2 11 8 6 10 -3 20 3 29 19 8 16 15 21 20 13
7 -12 15 -6 86 51 7 6 22 10 35 10 13 0 38 9 56 20 18 11 49 22 69 24 21 3 39
10 41 16 2 5 10 10 17 10 7 0 15 7 18 15 4 10 16 13 42 10 22 -3 35 -1 35 6 0
7 6 7 17 -2 10 -8 14 -9 10 -2 -5 8 0 12 15 12 13 0 33 1 46 1 12 0 22 6 22
13 0 8 7 14 15 14 12 0 12 -3 3 -16 -8 -10 -4 -9 10 3 13 11 41 20 69 22 27 2
52 3 56 3 5 1 5 5 2 11 -7 12 72 2 99 -12z m326 12 c0 -5 -4 -10 -10 -10 -5 0
-10 5 -10 10 0 6 5 10 10 10 6 0 10 -4 10 -10z m730 -10 c0 -5 -5 -10 -11 -10
-5 0 -7 5 -4 10 3 6 8 10 11 10 2 0 4 -4 4 -10z m-1761 -171 c-22 -13 -31 -11
-17 5 7 8 17 12 22 9 4 -3 2 -9 -5 -14z m-185 -117 c2 -4 -4 -8 -14 -8 -10 0
-16 4 -14 8 3 4 9 8 14 8 5 0 11 -4 14 -8z m1952 -65 c2 -14 -1 -15 -17 -6
-11 5 -17 15 -13 20 9 14 27 6 30 -14z m-2181 -87 c-3 -5 -12 -10 -18 -10 -7
0 -6 4 3 10 19 12 23 12 15 0z m25 -14 c0 -3 -7 -12 -16 -20 -17 -18 -44 -21
-44 -6 0 5 6 7 13 4 8 -3 20 2 27 11 12 15 20 19 20 11z m-210 -90 c0 -3 -4
-8 -10 -11 -5 -3 -10 -1 -10 4 0 6 5 11 10 11 6 0 10 -2 10 -4z m2490 -56 c0
-5 -2 -10 -4 -10 -3 0 -8 5 -11 10 -3 6 -1 10 4 10 6 0 11 -4 11 -10z m-2555
-140 c3 -5 1 -10 -4 -10 -6 0 -11 5 -11 10 0 6 2 10 4 10 3 0 8 -4 11 -10z
m2775 -27 c0 -21 -3 -24 -9 -14 -5 8 -7 20 -4 28 8 21 13 15 13 -14z m-2700 7
c0 -5 -2 -10 -4 -10 -3 0 -8 5 -11 10 -3 6 -1 10 4 10 6 0 11 -4 11 -10z
m-950 -20 c0 -5 -4 -10 -10 -10 -5 0 -10 5 -10 10 0 6 5 10 10 10 6 0 10 -4
10 -10z m862 -156 c-7 -12 -9 -8 -10 18 -1 26 1 30 9 16 6 -11 6 -24 1 -34z
m3046 -2 c6 -18 -15 -14 -22 4 -4 10 -1 14 6 12 6 -2 14 -10 16 -16z m102 3
c7 -9 8 -15 2 -15 -5 0 -12 7 -16 15 -3 8 -4 15 -2 15 2 0 9 -7 16 -15z m2286
4 c10 -17 -13 -36 -27 -22 -12 12 -4 33 11 33 5 0 12 -5 16 -11z m-5451 -38
c-6 -5 -25 10 -25 20 0 5 6 4 14 -3 8 -7 12 -15 11 -17z m3235 -1 c0 -5 -5
-10 -11 -10 -5 0 -7 5 -4 10 3 6 8 10 11 10 2 0 4 -4 4 -10z m-5200 -34 c0 -3
-4 -8 -10 -11 -5 -3 -10 -1 -10 4 0 6 5 11 10 11 6 0 10 -2 10 -4z m5267 -78
c-3 -7 -5 -2 -5 12 0 14 2 19 5 13 2 -7 2 -19 0 -25z m-2202 -78 c8 -13 -15
-13 -35 0 -12 8 -11 10 7 10 12 0 25 -4 28 -10z m-1210 -40 c3 -5 1 -10 -4
-10 -6 0 -11 5 -11 10 0 6 2 10 4 10 3 0 8 -4 11 -10z m20 -26 c-14 -15 -14
-17 2 -29 15 -11 14 -14 -16 -29 l-32 -17 17 25 c9 14 12 26 6 26 -5 0 -13 7
-16 16 -5 14 -4 15 8 5 11 -9 15 -8 20 4 3 8 10 15 16 15 6 0 4 -7 -5 -16z
m3487 -76 c31 -35 34 -40 16 -32 -16 7 -62 64 -52 64 4 0 20 -14 36 -32z m68
-13 c0 -2 -9 -3 -19 -2 -11 0 -18 5 -15 9 4 6 34 0 34 -7z m48 -30 c-3 -3 -9
2 -12 12 -6 14 -5 15 5 6 7 -7 10 -15 7 -18z m-33 5 c-3 -5 -12 -10 -18 -10
-7 0 -6 4 3 10 19 12 23 12 15 0z m23 -45 c0 -14 -6 -25 -12 -25 -6 0 -5 -6 4
-13 8 -7 16 -19 18 -27 2 -12 -1 -11 -11 2 -8 10 -17 15 -20 11 -4 -3 -7 1 -7
10 0 9 4 18 9 21 5 4 8 17 7 31 -2 13 0 22 4 20 4 -3 8 -16 8 -30z m77 -15 c3
-5 1 -10 -4 -10 -6 0 -11 5 -11 10 0 6 2 10 4 10 3 0 8 -4 11 -10z m-1505 -28
c0 -9 -8 -22 -18 -28 -15 -10 -18 -8 -18 8 0 11 5 17 13 14 7 -3 13 1 13 9 0
8 2 15 5 15 3 0 5 -8 5 -18z m-2223 -9 c0 -10 -4 -10 -16 -1 -9 7 -18 13 -20
15 -2 1 5 1 16 0 11 0 20 -7 20 -14z m2301 -32 c9 -14 31 -40 49 -57 22 -21
33 -41 33 -59 0 -15 11 -40 24 -55 16 -20 22 -37 19 -54 -8 -42 -23 -41 -23 2
0 26 -7 45 -20 57 -11 10 -20 31 -20 47 0 15 -5 28 -11 28 -5 0 -7 4 -4 10 3
5 -5 15 -19 22 -14 6 -26 15 -26 20 0 5 -5 6 -11 2 -7 -4 -9 2 -7 14 2 12 -5
27 -16 35 -17 12 -17 14 -1 14 9 0 24 -12 33 -26z m814 -6 c-18 -8 -57 -34
-85 -58 -51 -44 -183 -110 -242 -122 -16 -3 -3 5 30 18 102 41 171 76 190 97
10 11 14 20 8 20 -5 0 -18 -9 -28 -20 -9 -10 -20 -18 -24 -17 -3 0 -16 -4 -28
-11 -17 -10 -21 -9 -19 3 1 8 6 18 11 22 4 4 5 2 1 -4 -12 -22 7 -14 36 14 25
24 74 41 62 21 -3 -4 -1 -8 5 -8 5 0 13 5 17 11 9 16 67 49 84 49 8 -1 0 -7
-18 -15z m528 10 c0 -7 -30 -13 -34 -7 -3 4 4 9 15 9 10 1 19 0 19 -2z m-1466
-14 c5 -1 3 -8 -4 -16 -10 -12 -16 -13 -26 -4 -19 16 -17 28 4 24 9 -2 21 -4
26 -4z m1089 -8 c-7 -2 -19 -2 -25 0 -7 3 -2 5 12 5 14 0 19 -2 13 -5z m-161
-24 c-39 -26 -36 -37 5 -16 15 8 44 17 63 21 28 5 25 2 -15 -12 -27 -10 -44
-21 -36 -23 14 -5 -72 -63 -94 -64 -5 0 -42 -17 -81 -37 -76 -39 -182 -78
-211 -78 -10 1 25 16 77 34 102 36 205 84 197 92 -3 3 -29 -7 -58 -22 -69 -34
-175 -74 -197 -73 -9 0 8 9 38 20 131 48 185 75 253 125 40 30 77 54 82 54 6
0 -5 -10 -23 -21z m568 -9 c0 -5 -2 -10 -4 -10 -3 0 -8 5 -11 10 -3 6 -1 10 4
10 6 0 11 -4 11 -10z m-3676 -8 c3 -5 -1 -9 -9 -9 -8 0 -12 4 -9 9 3 4 7 8 9
8 2 0 6 -4 9 -8z m1999 1 c-7 -2 -19 -2 -25 0 -7 3 -2 5 12 5 14 0 19 -2 13
-5z m75 -15 c-6 -17 -58 -23 -72 -8 -8 10 -5 11 17 8 15 -3 27 -1 27 3 0 5 7
9 16 9 9 0 14 -6 12 -12z m255 -6 c4 9 6 9 6 1 2 -22 -16 -23 -35 0 l-19 22
21 -18 c17 -14 23 -15 27 -5z m493 3 c-11 -8 -25 -15 -30 -15 -6 1 0 7 14 15
32 19 40 18 16 0z m-2861 -15 c3 -6 -1 -7 -9 -4 -18 7 -21 14 -7 14 6 0 13 -4
16 -10z m2035 -32 c0 -6 -6 -5 -15 2 -8 7 -15 14 -15 16 0 2 7 1 15 -2 8 -4
15 -11 15 -16z m354 6 c3 -8 2 -12 -4 -9 -6 3 -10 10 -10 16 0 14 7 11 14 -7z
m490 -29 c-17 -8 -44 -17 -60 -20 -19 -4 -14 1 16 14 25 10 52 19 60 19 8 0 1
-6 -16 -13z m996 -9 c0 -3 -4 -8 -10 -11 -5 -3 -10 -1 -10 4 0 6 5 11 10 11 6
0 10 -2 10 -4z m-1579 -53 c13 -16 12 -17 -3 -4 -10 7 -18 15 -18 17 0 8 8 3
21 -13z m-2281 -8 c-7 -8 -18 -15 -24 -15 -6 0 -2 7 8 15 25 19 32 19 16 0z
m2417 -47 c-3 -8 -6 -5 -6 6 -1 11 2 17 5 13 3 -3 4 -12 1 -19z m73 -29 c0
-10 5 -21 10 -24 15 -9 12 -25 -4 -19 -8 3 -17 16 -20 29 -3 13 -9 31 -13 42
-6 16 -5 16 10 4 9 -7 17 -22 17 -32z m-54 -6 c-2 -16 -5 -37 -5 -47 -1 -26
-9 -16 -21 24 -7 26 -7 31 5 26 9 -3 15 1 15 9 0 8 2 15 5 15 3 0 4 -12 1 -27z
m1094 1 c0 -8 -6 -11 -15 -8 -8 4 -15 9 -15 13 0 4 7 8 15 8 8 0 15 -6 15 -13z
m25 -52 c-3 -3 -11 0 -18 7 -9 10 -8 11 6 5 10 -3 15 -9 12 -12z m-85 -42 c0
-5 -5 -10 -11 -10 -5 0 -7 5 -4 10 3 6 8 10 11 10 2 0 4 -4 4 -10z m-3466 -29
c-2 -3 -12 3 -22 13 -16 17 -16 18 5 5 12 -7 20 -15 17 -18z m2490 13 c3 -8 2
-12 -4 -9 -6 3 -10 10 -10 16 0 14 7 11 14 -7z m-2461 -29 c4 -8 3 -16 -1 -19
-4 -3 -9 4 -9 15 -2 23 3 25 10 4z m4067 -25 c0 -5 -5 -10 -11 -10 -5 0 -7 5
-4 10 3 6 8 10 11 10 2 0 4 -4 4 -10z m-4014 -9 c-7 -11 19 -33 28 -24 4 4 4
0 1 -9 -6 -15 -9 -15 -30 5 -22 22 -24 37 -4 37 6 0 8 -4 5 -9z m1851 -13 c-3
-8 -6 -5 -6 6 -1 11 2 17 5 13 3 -3 4 -12 1 -19z m-46 -15 c13 -16 12 -17 -3
-4 -10 7 -18 15 -18 17 0 8 8 3 21 -13z m1564 -23 c3 -5 1 -10 -4 -10 -6 0
-11 5 -11 10 0 6 2 10 4 10 3 0 8 -4 11 -10z m-914 -17 c13 -16 12 -17 -3 -4
-10 7 -18 15 -18 17 0 8 8 3 21 -13z m-26 -31 c-3 -3 -11 0 -18 7 -9 10 -8 11
6 5 10 -3 15 -9 12 -12z m945 14 c0 -3 -4 -8 -10 -11 -5 -3 -10 -1 -10 4 0 6
5 11 10 11 6 0 10 -2 10 -4z m-3766 -128 c-3 -4 -12 -8 -20 -8 -17 0 -19 27
-1 33 14 5 28 -13 21 -25z m2810 -13 c-4 -8 -10 -12 -15 -9 -11 6 -2 24 11 24
5 0 7 -7 4 -15z m50 -31 c3 -8 2 -12 -4 -9 -6 3 -10 10 -10 16 0 14 7 11 14
-7z m-49 -3 c3 -5 2 -12 -3 -15 -5 -3 -9 1 -9 9 0 17 3 19 12 6z m3351 -12 c9
-15 -11 -33 -30 -26 -9 4 -13 13 -10 22 7 17 30 20 40 4z m-3796 -7 c0 -5 -7
-9 -15 -9 -8 0 -12 4 -9 9 3 4 9 8 15 8 5 0 9 -4 9 -8z m387 -5 c0 -8 -6 -14
-14 -14 -9 0 -10 4 -2 14 6 7 12 13 14 13 1 0 2 -6 2 -13z m940 7 c-3 -3 -12
-4 -19 -1 -8 3 -5 6 6 6 11 1 17 -2 13 -5z m-37 -28 c0 -2 -7 -7 -16 -10 -8
-3 -12 -2 -9 4 6 10 25 14 25 6z m-810 -40 c0 -3 -4 -8 -10 -11 -5 -3 -10 -1
-10 4 0 6 5 11 10 11 6 0 10 -2 10 -4z m-2250 -16 c0 -5 -4 -10 -10 -10 -5 0
-10 5 -10 10 0 6 5 10 10 10 6 0 10 -4 10 -10z m1675 0 c3 -5 1 -10 -4 -10 -6
0 -11 5 -11 10 0 6 2 10 4 10 3 0 8 -4 11 -10z m-1507 -87 c-1 -5 4 -19 11
-32 16 -30 0 -50 -20 -24 -13 16 -12 17 4 4 21 -16 22 -3 2 23 -17 23 -19 36
-5 36 6 0 9 -3 8 -7z m2963 -20 c-12 -20 -14 -14 -5 12 4 9 9 14 11 11 3 -2 0
-13 -6 -23z m46 -89 c-9 -9 -28 6 -21 18 4 6 10 6 17 -1 6 -6 8 -13 4 -17z
m-1552 -13 c-3 -5 1 -15 8 -23 8 -7 16 -27 19 -43 5 -26 5 -28 -7 -12 -10 14
-14 15 -19 5 -3 -7 -4 -3 -2 10 2 12 1 22 -4 22 -15 0 -21 33 -8 42 17 10 20
10 13 -1z m1591 -73 c4 -7 3 -8 -4 -4 -18 11 -14 -10 4 -28 17 -18 7 -21 -16
-6 -8 5 -10 10 -5 10 6 0 3 5 -5 10 -13 9 -13 11 0 20 19 12 17 12 26 -2z
m-1576 -37 c0 -5 -11 -4 -24 2 -13 7 -22 15 -20 19 6 10 44 -9 44 -21z m-10
-46 c17 -25 33 -55 35 -66 2 -12 9 -27 16 -35 7 -9 8 -14 1 -14 -9 0 -26 36
-24 50 2 13 -32 40 -38 30 -4 -6 -7 4 -7 22 0 17 -5 34 -11 36 -11 3 -17 22
-7 22 2 0 18 -20 35 -45z m64 9 c3 -8 2 -12 -4 -9 -6 3 -10 10 -10 16 0 14 7
11 14 -7z m1536 1 c0 -1 -7 -8 -15 -15 -13 -10 -15 -9 -15 8 0 15 5 20 15 16
8 -4 15 -7 15 -9z m35 -5 c3 -5 1 -10 -4 -10 -6 0 -11 5 -11 10 0 6 2 10 4 10
3 0 8 -4 11 -10z m-1646 -104 c-1 -20 -2 -20 -6 -1 -3 11 -10 27 -17 35 -10
13 -9 13 7 1 9 -7 16 -23 16 -35z m-14 -82 c16 -16 22 -5 6 12 -5 5 -5 18 -1
29 8 19 9 19 9 -3 1 -13 5 -20 11 -17 13 8 13 2 -1 -29 -7 -14 -17 -22 -23
-19 -6 4 -4 -2 4 -13 22 -29 24 -30 17 -11 -4 9 -2 17 3 17 5 0 12 -16 16 -35
3 -20 9 -33 12 -31 6 7 58 -66 54 -76 -1 -4 12 -30 28 -58 17 -28 30 -59 30
-69 0 -10 3 -21 7 -25 4 -4 8 -13 9 -19 0 -7 2 -20 2 -30 1 -11 7 -15 14 -11
7 5 8 3 2 -7 -5 -8 -7 -22 -6 -31 2 -10 -2 -18 -7 -18 -6 0 -11 11 -11 24 0
43 -24 131 -37 139 -7 5 -11 13 -7 18 3 5 0 8 -8 7 -8 -2 -14 8 -16 23 -2 15
-12 35 -23 45 -10 9 -19 23 -19 31 0 10 -5 11 -18 4 -19 -10 -42 2 -42 23 0 6
-15 26 -32 46 l-33 35 33 -29 c41 -38 42 -20 1 20 -34 32 -65 79 -37 56 12
-10 18 -10 27 2 9 11 7 21 -9 48 -11 18 -20 38 -20 43 0 6 11 -9 25 -33 13
-23 31 -50 40 -58z m165 51 c0 -8 -4 -15 -10 -15 -5 0 -7 7 -4 15 4 8 8 15 10
15 2 0 4 -7 4 -15z m-80 -41 c0 20 30 -18 30 -39 0 -13 18 -49 39 -81 22 -33
42 -73 46 -89 4 -21 -4 -12 -26 29 -21 40 -33 55 -39 46 -6 -9 -10 -6 -16 11
-4 13 -7 28 -6 32 1 4 -4 20 -12 35 -7 15 -11 33 -9 40 3 7 -1 11 -7 10 -7 -2
-15 4 -17 12 -4 13 -3 13 6 0 6 -8 11 -11 11 -6z m1632 -36 c-7 -7 -12 -18
-12 -26 0 -11 3 -12 14 -2 12 9 15 8 13 -9 -2 -27 -12 -27 -31 1 -14 19 -14
23 2 34 22 17 30 18 14 2z m-1507 -88 c10 -11 16 -20 13 -20 -3 0 -13 9 -23
20 -10 11 -16 20 -13 20 3 0 13 -9 23 -20z m-460 -161 c18 -51 72 -122 85
-114 5 3 12 0 16 -6 4 -8 3 -9 -4 -5 -18 11 -14 -10 5 -25 9 -8 14 -9 10 -2
-8 13 18 12 30 -2 4 -4 2 -5 -4 -1 -21 12 -14 -4 15 -35 15 -16 27 -34 27 -39
0 -6 4 -10 9 -9 5 0 24 -27 43 -60 19 -33 42 -66 52 -73 10 -7 19 -21 19 -30
4 -42 6 -47 13 -42 5 3 11 -8 14 -23 14 -62 71 -177 84 -168 4 2 8 -2 8 -10 0
-11 -4 -12 -14 -4 -8 7 -13 8 -13 1 0 -5 7 -15 15 -22 9 -7 14 -19 11 -26 -3
-7 3 -18 11 -26 15 -11 16 -11 10 5 -4 12 -3 16 4 11 6 -3 9 -15 6 -25 -3 -12
0 -19 9 -19 8 0 14 -5 14 -11 0 -17 105 -146 164 -202 31 -29 43 -46 31 -42
-16 4 -15 3 3 -6 12 -7 21 -19 20 -28 -2 -9 2 -15 9 -14 7 2 10 -3 7 -10 -2
-7 9 -26 25 -43 17 -16 31 -33 31 -38 0 -19 83 -116 93 -109 6 3 7 1 3 -6 -10
-16 34 -75 46 -63 6 6 18 8 27 4 13 -5 14 -3 3 10 -7 8 -10 24 -6 34 4 13 3
15 -3 6 -7 -10 -14 -8 -28 8 -14 16 -15 19 -4 15 9 -3 22 2 30 11 9 12 10 15
2 10 -7 -4 -13 -2 -13 3 0 6 -5 11 -11 11 -5 0 -7 -6 -3 -12 4 -7 3 -9 -1 -5
-5 4 -10 22 -10 40 -2 44 -15 78 -26 72 -5 -4 -9 -1 -9 4 0 6 -5 11 -11 11 -5
0 -7 -6 -3 -12 5 -9 2 -9 -9 1 -9 7 -17 19 -17 25 0 6 5 4 11 -4 8 -11 9 -3 4
30 -3 25 -12 50 -20 56 -8 6 -12 19 -9 30 3 10 -1 28 -9 38 -13 17 -14 16 -10
-15 3 -25 2 -30 -6 -19 -5 8 -7 18 -4 24 3 5 1 6 -5 2 -6 -4 -13 7 -17 26 -11
54 -16 68 -25 68 -5 0 -7 -8 -4 -17 3 -10 -5 0 -18 22 -26 43 -28 55 -4 36 12
-10 14 -9 9 8 -3 12 -9 19 -13 16 -6 -4 -18 19 -24 47 0 3 -4 10 -8 14 -9 8
-2 -31 8 -49 5 -8 2 -8 -9 2 -9 7 -17 22 -17 33 0 12 -4 17 -12 12 -7 -4 -8
-3 -4 4 4 6 0 25 -9 41 -8 17 -15 47 -15 69 0 21 -6 44 -12 51 -11 11 -9 11
12 1 25 -12 25 -12 -2 14 -16 15 -28 35 -28 45 0 10 -9 26 -20 36 -11 10 -17
21 -14 26 6 10 -17 49 -29 49 -4 0 -5 -5 -1 -12 7 -11 12 -37 19 -97 3 -18 12
-45 21 -58 11 -17 13 -28 6 -35 -6 -6 -8 -18 -4 -27 5 -14 4 -14 -11 -2 -10 8
-17 9 -17 3 0 -6 5 -14 10 -17 17 -11 11 -24 -10 -22 -11 1 -20 4 -20 8 0 4
-9 9 -20 12 -11 3 -20 11 -19 19 0 9 2 9 5 1 3 -7 12 -9 20 -6 8 3 14 0 14 -6
0 -6 3 -11 8 -11 12 0 13 68 1 76 -8 4 -7 9 2 15 11 7 10 9 -3 9 -21 0 -22 -4
-8 -31 8 -15 8 -19 -2 -17 -7 2 -16 8 -20 13 -4 6 -8 1 -8 -10 0 -16 -2 -17
-10 -5 -6 10 -5 17 5 23 8 4 15 13 15 18 0 6 -4 8 -9 5 -4 -3 -7 5 -6 17 1 12
-4 31 -10 42 -7 11 -18 38 -25 60 -17 53 -25 61 -24 23 0 -18 6 -34 12 -36 7
-2 12 -11 12 -20 0 -15 -2 -15 -10 -2 -12 18 -4 -36 13 -90 15 -49 16 -56 7
-70 -6 -9 -11 -7 -19 9 -7 11 -9 21 -6 21 3 0 1 10 -6 21 -9 17 -13 19 -19 8
-6 -8 -8 -2 -8 20 1 18 -4 36 -11 40 -7 5 -9 23 -6 50 3 23 2 40 -3 37 -4 -2
-9 3 -10 12 -7 65 -11 84 -18 90 -4 4 -4 -1 -1 -10 5 -15 4 -16 -13 -6 -10 7
-17 15 -15 18 2 3 -11 43 -29 88 -18 45 -31 84 -28 87 3 3 0 5 -5 5 -6 0 -26
24 -43 52 -18 29 -26 47 -18 40 8 -6 23 -27 33 -45 10 -18 27 -38 39 -43 11
-5 26 -19 32 -32 6 -13 15 -23 19 -22 11 2 25 -22 24 -40 0 -10 -3 -8 -10 5
l-9 20 3 -20 c1 -11 9 -20 16 -20 8 0 16 -6 19 -14 3 -8 0 -11 -7 -7 -13 8
-14 4 -5 -18 3 -9 10 -13 15 -10 5 3 6 -2 3 -10 -3 -8 -1 -23 5 -33 8 -14 10
-15 11 -3 0 12 2 12 9 2 5 -9 8 -4 7 16 -1 17 -5 28 -9 25 -5 -3 -7 1 -6 8 2
8 -4 28 -13 44 -8 17 -18 46 -22 65 l-6 35 14 -30 15 -30 -3 28 c-1 16 -9 33
-17 38 -11 7 -11 9 4 9 11 0 17 8 17 23 0 14 6 24 15 24 8 0 11 -5 7 -11 -10
-17 -11 -35 -1 -42 5 -3 16 -22 25 -42 12 -29 17 -34 24 -22 8 12 10 11 10 -6
0 -11 3 -24 7 -28 10 -10 14 -48 4 -42 -4 3 -6 -5 -4 -17 3 -13 13 -29 24 -35
17 -11 18 -10 9 14 -23 60 -1 109 29 62 7 -11 7 -18 1 -18 -5 0 -10 5 -10 10
0 6 -4 10 -10 10 -19 0 -10 -21 13 -29 14 -5 25 -4 29 2 4 8 9 5 14 -6 3 -9
10 -14 15 -11 5 3 9 0 9 -5 0 -6 -4 -11 -10 -11 -5 0 -10 -7 -10 -16 0 -8 3
-13 8 -11 4 3 13 -1 20 -9 11 -12 10 -14 -4 -14 -13 0 -14 -3 -4 -15 9 -10 9
-15 1 -15 -10 0 -15 13 -12 33 0 4 -3 7 -8 7 -5 0 -17 7 -25 16 -14 14 -16 14
-16 0 0 -8 9 -21 19 -28 11 -8 23 -27 27 -43 6 -25 8 -26 14 -10 6 16 8 14 18
-13 15 -43 121 -145 137 -132 8 6 18 5 31 -5 10 -8 14 -15 9 -15 -6 0 -16 5
-23 12 -7 7 -12 8 -12 2 0 -6 12 -21 27 -35 15 -13 21 -16 14 -6 -7 9 -10 17
-5 17 26 -1 62 -54 44 -65 -15 -9 -12 -45 5 -51 11 -5 12 -9 2 -19 -7 -7 -16
-11 -21 -8 -4 3 -2 9 5 14 10 6 10 9 2 9 -16 0 -26 -17 -14 -25 6 -3 20 -20
33 -38 19 -28 20 -30 3 -17 -11 8 -23 20 -27 25 -5 6 -8 6 -8 -2 0 -6 5 -15
10 -18 6 -4 7 -11 4 -17 -4 -7 -2 -8 4 -4 14 9 34 -28 22 -40 -14 -14 -1 -52
20 -57 18 -5 18 -3 3 19 -9 14 -13 27 -11 30 3 2 13 -7 22 -20 18 -28 12 -58
-10 -49 -11 4 -10 -2 3 -29 22 -45 24 -47 17 -12 -4 20 -1 34 9 42 12 10 17 5
30 -30 25 -70 30 -91 19 -84 -6 3 -18 27 -28 51 -25 66 -27 49 -3 -20 11 -32
18 -67 15 -78 -2 -10 -2 -16 2 -13 3 4 12 -4 19 -16 l14 -23 -7 24 c-4 15 -2
21 4 17 6 -4 9 -30 6 -64 -3 -36 -1 -52 5 -43 6 10 11 5 17 -20 4 -19 7 -45 5
-59 -2 -24 -1 -24 14 -6 8 11 15 17 15 14 0 -4 3 -14 7 -24 4 -12 3 -15 -5
-10 -15 9 -15 -14 -1 -34 9 -13 10 -12 5 3 -3 9 -2 17 3 17 9 0 27 -57 37
-117 3 -24 10 -40 15 -37 5 2 12 -8 15 -23 4 -15 18 -47 31 -70 26 -47 29 -59
10 -47 -7 5 -5 2 5 -8 10 -9 14 -18 8 -20 -6 -2 -3 -18 9 -41 l19 -37 -27 -2
c-62 -4 -97 -2 -109 6 -9 6 -11 4 -6 -8 3 -9 2 -16 -2 -17 -5 0 -36 -2 -69 -4
-33 -2 -60 -4 -60 -5 0 -1 -11 -3 -24 -4 -13 -2 -32 6 -43 18 l-20 21 6 -40 7
-40 -22 30 c-11 17 -19 22 -16 13 3 -9 -1 -19 -9 -22 -8 -3 -14 0 -15 7 0 9
-2 9 -6 -1 -2 -6 -9 -10 -14 -6 -5 3 -9 -3 -9 -13 0 -15 -2 -15 -9 -4 -12 18
-41 23 -41 8 -1 -7 -5 -6 -13 3 -7 8 -21 15 -33 16 -17 0 -20 -5 -16 -25 3
-20 1 -23 -7 -11 -8 12 -11 12 -17 -3 -6 -17 -8 -17 -25 -1 -18 16 -19 16 -19
-2 -1 -13 -8 -7 -25 21 -24 39 -35 43 -15 5 8 -15 6 -21 -8 -29 -13 -7 -22 -7
-30 1 -9 9 -12 9 -12 -1 0 -7 -4 -9 -10 -6 -5 3 -10 1 -10 -6 0 -7 -8 -5 -21
7 -22 19 -22 19 -17 -8 5 -28 -6 -39 -15 -15 -3 7 -6 4 -6 -6 -1 -10 -5 -15
-11 -12 -5 3 -10 0 -10 -7 0 -7 -10 -2 -21 12 -17 21 -19 22 -10 3 19 -39 12
-48 -13 -14 -14 19 -27 28 -31 21 -10 -16 -60 24 -75 60 -7 16 -17 27 -23 23
-5 -3 -7 -2 -4 3 9 15 -24 76 -39 70 -19 -7 -25 5 -11 22 10 13 9 15 -8 8 -11
-4 -16 -4 -12 0 3 4 -2 19 -13 34 -11 15 -24 39 -30 54 -5 14 -17 26 -25 26
-9 0 -14 4 -11 9 8 12 -33 93 -44 86 -6 -3 -8 0 -5 7 5 15 -19 50 -31 46 -5
-2 -10 2 -12 7 -2 6 -11 18 -19 28 -10 10 -12 17 -5 17 20 0 4 72 -20 95 l-22
20 18 -22 c22 -26 15 -31 -9 -7 -8 9 -13 24 -10 34 4 12 -1 19 -15 23 -11 3
-20 11 -20 17 0 9 4 9 17 -1 15 -13 15 -12 3 8 -8 12 -17 20 -21 17 -4 -2 -6
4 -5 12 0 9 -7 18 -17 20 -11 1 -22 6 -25 10 -4 4 1 4 11 1 9 -4 17 -2 17 3 0
6 -6 10 -14 10 -20 0 -75 60 -69 76 4 12 -6 18 -28 16 -3 -1 -4 11 -1 26 5 24
4 26 -12 13 -14 -12 -16 -12 -11 1 6 16 -33 48 -59 48 -8 0 -18 5 -22 12 -4 7
-3 8 4 4 8 -5 10 -2 6 8 -3 9 -10 14 -14 11 -4 -3 -7 3 -6 13 0 9 -5 16 -12
14 -8 -1 -11 2 -8 7 7 11 -26 76 -55 107 -21 22 -25 44 -9 44 5 0 9 -6 7 -12
-1 -7 5 -12 13 -10 8 2 12 0 8 -4 -4 -4 0 -13 10 -20 9 -7 17 -16 17 -21 0 -4
11 -29 25 -55 24 -50 42 -64 32 -26 -4 16 -2 19 8 13 9 -6 11 -4 5 6 -16 27
-38 48 -46 44 -4 -3 -10 -1 -14 5 -3 5 -1 10 4 10 6 0 2 15 -9 33 -30 49 -24
55 17 16 l37 -34 -32 38 c-31 37 -40 57 -24 57 4 0 14 -6 22 -12 12 -11 12
-10 1 5 -8 9 -11 20 -8 23 3 3 17 -11 31 -32 14 -21 33 -39 42 -40 13 -2 10 4
-9 22 -33 31 -62 73 -54 80 3 3 10 -4 17 -15 6 -13 16 -19 23 -15 7 4 9 4 5
-1 -9 -10 11 -37 22 -30 4 3 14 -3 21 -12 12 -14 12 -15 1 -9 -11 7 -12 4 -3
-13 14 -25 23 -28 14 -3 -6 15 -5 15 10 3 9 -7 17 -11 17 -7 0 16 -3 21 -11
18 -18 -4 -9 18 12 28 18 10 25 7 50 -21 16 -18 29 -27 29 -19 0 17 11 7 14
-14 2 -17 35 -56 47 -56 4 0 5 10 2 23 -4 21 -3 21 10 -3 9 -14 13 -28 11 -31
-8 -13 36 -41 56 -36 13 3 20 0 20 -8 0 -8 5 -17 12 -21 8 -5 9 -1 5 12 -7 19
-7 19 8 0 8 -10 12 -22 10 -26 -3 -4 9 -6 25 -4 23 3 30 0 30 -14 0 -35 52
-59 63 -29 4 7 6 6 6 -5 1 -9 -6 -24 -15 -32 -14 -14 -14 -16 0 -16 9 0 23
-14 31 -31 19 -35 33 -33 15 3 -10 20 -8 19 15 -6 14 -16 24 -35 21 -43 -3 -8
-2 -12 3 -9 5 3 11 -1 15 -9 11 -31 -32 -14 -68 25 -20 22 -39 40 -43 40 -4 0
13 -20 37 -45 24 -25 50 -45 57 -45 8 0 18 -10 24 -22 l10 -23 -5 23 c-3 14 0
20 7 15 6 -4 8 2 5 15 -8 30 -2 27 15 -7 11 -22 12 -32 3 -42 -8 -9 -7 -11 6
-6 13 5 20 -3 30 -28 6 -19 16 -35 20 -35 11 0 10 7 -3 32 -13 24 2 68 23 68
8 0 9 -3 3 -8 -6 -4 1 -19 19 -37 16 -16 25 -23 19 -15 -6 8 -10 23 -10 32 0
15 3 16 30 2 16 -9 31 -13 34 -11 2 3 -5 8 -16 12 -12 3 -21 11 -21 17 0 7 4
7 13 1 6 -6 21 -13 31 -17 14 -5 16 -3 9 6 -14 18 -23 69 -10 61 17 -10 58
-12 51 -2 -3 5 -10 6 -16 3 -7 -4 -8 -2 -4 4 4 7 2 20 -3 29 -6 11 -11 13 -11
5 0 -7 -5 -10 -11 -7 -6 4 -8 13 -5 20 2 7 -5 23 -17 35 -11 13 -22 37 -23 54
l-3 31 17 -34 c9 -19 23 -37 31 -39 8 -3 11 0 7 7 -4 6 -2 9 7 5 17 -6 33 26
17 36 -6 4 -12 15 -14 26 -2 12 -14 36 -25 55 -25 40 -26 46 -6 46 8 0 12 -4
9 -8 -4 -7 34 -79 43 -79 2 0 1 5 -3 12 -4 7 -3 8 4 4 7 -4 12 -14 12 -22 0
-8 -5 -12 -11 -9 -6 4 0 -9 13 -28 12 -20 25 -31 28 -26 7 11 56 -51 52 -67
-1 -6 10 -21 25 -35 27 -24 23 -10 -6 25 -15 18 -15 19 4 13 18 -7 19 -6 3 6
-10 8 -14 17 -10 21 4 4 0 6 -8 4 -8 -2 -14 2 -15 7 0 6 -8 22 -18 36 -10 14
-15 32 -13 40 3 8 -6 28 -19 44 -14 17 -25 25 -25 18 0 -6 4 -15 10 -18 5 -3
15 -15 20 -25 8 -15 7 -18 -4 -14 -7 3 -21 23 -31 44 -10 22 -22 38 -28 37 -6
-1 -12 5 -12 13 -2 28 -19 55 -62 98 -24 23 -46 42 -49 42 -2 0 12 -21 32 -47
20 -27 40 -47 46 -45 5 1 7 -2 3 -8 -3 -5 -1 -10 4 -10 6 0 11 -4 11 -9 0 -24
-32 0 -66 49 -33 50 -52 71 -120 141 -36 36 -74 69 -81 69 -4 0 -8 12 -9 27
-1 32 -7 56 -14 63 -3 3 -11 14 -18 25 -7 11 -22 35 -34 53 -16 25 -23 30 -30
20 -7 -10 -9 -10 -7 2 3 30 -2 39 -53 102 -47 57 -48 60 -13 28 21 -19 47 -44
56 -55 18 -20 18 -20 12 3 -3 12 -9 22 -13 22 -9 0 -24 58 -22 85 2 16 0 17
-8 5 -5 -8 -10 -12 -10 -8 0 3 -3 14 -7 24 -4 12 -3 15 5 10 14 -8 10 54 -5
94 -6 14 -13 39 -16 55 -8 36 2 16 28 -56z m455 26 c0 -8 -2 -15 -4 -15 -2 0
-6 7 -10 15 -3 8 -1 15 4 15 6 0 10 -7 10 -15z m35 -15 c3 -5 1 -10 -4 -10 -6
0 -11 5 -11 10 0 6 2 10 4 10 3 0 8 -4 11 -10z m68 -20 c9 -11 13 -20 9 -20
-4 0 -15 9 -25 20 -9 11 -13 20 -9 20 4 0 15 -9 25 -20z m1577 -10 c0 -5 -2
-10 -4 -10 -3 0 -8 5 -11 10 -3 6 -1 10 4 10 6 0 11 -4 11 -10z m-2224 -55
c15 -20 25 -38 22 -40 -3 -3 -17 13 -32 35 -33 49 -27 52 10 5z m2325 18 c13
-16 12 -17 -3 -4 -10 7 -18 15 -18 17 0 8 8 3 21 -13z m-2017 -100 c3 -7 1
-13 -3 -13 -5 0 -12 8 -15 17 -6 15 -8 15 -16 3 -7 -11 -9 -10 -8 6 2 18 5 20
20 11 10 -7 20 -17 22 -24z m251 7 c-3 -4 2 -13 10 -20 16 -13 21 -35 6 -26
-5 4 -12 0 -15 -6 -3 -7 -5 -4 -5 7 1 11 0 22 -1 25 -7 19 -7 39 1 34 5 -3 7
-9 4 -14z m110 -28 c-3 -3 -11 0 -18 7 -9 10 -8 11 6 5 10 -3 15 -9 12 -12z
m198 -7 c4 -8 3 -16 -1 -19 -4 -3 -9 4 -9 15 -2 23 3 25 10 4z m-523 -50 c0
-11 -14 7 -31 40 -7 13 -3 12 10 -5 11 -14 21 -29 21 -35z m560 5 c0 -5 -2
-10 -4 -10 -3 0 -8 5 -11 10 -3 6 -1 10 4 10 6 0 11 -4 11 -10z m-160 -22 c0
-6 -7 -7 -16 -4 -9 3 -18 6 -20 6 -3 0 -3 4 1 10 7 11 35 2 35 -12z m-398 2
c6 0 8 -3 5 -6 -3 -4 -2 -15 3 -25 7 -12 7 -20 0 -24 -6 -4 -10 -3 -9 2 3 20
-2 27 -12 13 -8 -12 -9 -10 -4 9 5 17 4 22 -5 16 -8 -5 -11 -4 -6 3 3 5 3 12
-1 15 -5 2 -2 2 5 0 8 -1 19 -3 24 -3z m363 -30 c3 -5 1 -10 -4 -10 -6 0 -11
5 -11 10 0 6 2 10 4 10 3 0 8 -4 11 -10z m-338 -45 c0 -8 -4 -12 -9 -9 -5 3
-6 10 -3 15 9 13 12 11 12 -6z m-263 -24 c-2 -3 -12 3 -22 13 -16 17 -16 18 5
5 12 -7 20 -15 17 -18z m301 -10 c6 8 10 7 16 -2 15 -24 10 -28 -21 -18 -16 6
-30 16 -30 21 0 7 5 6 14 -1 11 -9 16 -9 21 0z m410 -29 c-3 -3 -11 0 -18 7
-9 10 -8 11 6 5 10 -3 15 -9 12 -12z m75 -83 c0 -6 -4 -7 -10 -4 -5 3 -10 11
-10 16 0 6 5 7 10 4 6 -3 10 -11 10 -16z m-350 -28 c0 -11 -4 -22 -9 -25 -5
-3 -8 6 -8 19 0 14 3 25 8 25 5 0 9 -9 9 -19z m237 -7 c3 -9 13 -14 23 -11 13
3 16 0 12 -15 -4 -18 -7 -17 -33 8 -32 31 -34 34 -19 34 6 0 13 -7 17 -16z
m108 -4 c10 -11 16 -20 13 -20 -3 0 -13 9 -23 20 -10 11 -16 20 -13 20 3 0 13
-9 23 -20z m1885 -10 c0 -5 -6 -10 -12 -10 -9 0 -8 -4 2 -10 13 -8 12 -10 -2
-10 -20 0 -21 1 -12 24 7 18 24 22 24 6z m-3040 -41 c15 -28 5 -23 -15 7 -9
15 -12 23 -6 20 6 -4 16 -16 21 -27z m2990 22 c0 -5 -9 -7 -20 -4 -11 3 -20 7
-20 9 0 2 9 4 20 4 11 0 20 -4 20 -9z m10 -36 c-5 -6 -7 -15 -3 -18 3 -4 4 -7
1 -7 -3 0 -13 11 -21 23 -15 23 -15 24 9 19 18 -3 22 -8 14 -17z m-3010 -16
c0 -6 -4 -7 -10 -4 -5 3 -10 11 -10 16 0 6 5 7 10 4 6 -3 10 -11 10 -16z m960
-6 c0 -19 -13 -9 -16 12 -1 8 2 13 7 9 5 -3 9 -12 9 -21z m2113 20 c-18 -7
-16 -23 2 -23 8 0 15 -4 15 -10 0 -16 -27 -12 -34 6 -3 8 -10 12 -16 9 -5 -3
-7 0 -5 7 3 8 16 14 28 15 12 0 16 -1 10 -4z m47 -38 c11 -13 10 -14 -4 -9 -9
3 -16 10 -16 15 0 13 6 11 20 -6z m-3089 -12 c13 -16 12 -17 -3 -4 -10 7 -18
15 -18 17 0 8 8 3 21 -13z m63 -15 c-4 -6 -10 -5 -15 3 -14 22 -10 33 6 19 8
-7 12 -17 9 -22z m3179 -10 c-12 -6 -24 -18 -26 -27 -3 -11 -5 -9 -6 6 -1 21
11 31 39 32 9 0 6 -5 -7 -11z m47 -9 c0 -6 -4 -7 -10 -4 -5 3 -10 11 -10 16 0
6 5 7 10 4 6 -3 10 -11 10 -16z m-2434 -24 c-5 16 -1 20 19 21 14 1 25 -2 25
-7 0 -5 5 -8 12 -6 6 1 24 -22 40 -50 15 -29 25 -53 22 -53 -9 0 -36 30 -27
30 4 0 0 5 -10 11 -9 6 -15 14 -12 20 3 5 1 17 -5 26 -10 16 -11 15 -7 -4 3
-13 1 -26 -4 -29 -5 -3 -9 6 -9 20 0 14 -5 28 -11 32 -8 5 -10 -1 -5 -19 3
-14 2 -29 -4 -32 -5 -3 -10 -1 -10 4 0 6 -5 11 -11 11 -8 0 -8 -5 1 -15 7 -8
16 -12 21 -9 5 3 12 -2 15 -10 3 -9 10 -14 14 -11 5 3 11 1 14 -4 4 -5 1 -13
-4 -16 -7 -4 -8 -19 -5 -36 5 -24 3 -29 -12 -29 -13 0 -15 3 -5 8 16 11 0 60
-28 82 -10 8 -25 33 -34 55 l-16 40 21 -25 c18 -21 21 -22 15 -5z m374 -5 c6
-11 8 -20 6 -20 -3 0 -10 9 -16 20 -6 11 -8 20 -6 20 3 0 10 -9 16 -20z m2330
0 c0 -5 -4 -10 -9 -10 -6 0 -13 5 -16 10 -3 6 1 10 9 10 9 0 16 -4 16 -10z
m177 -44 c-3 -8 -1 -17 6 -20 7 -2 2 -5 -11 -5 -20 -1 -21 1 -10 19 15 23 23
26 15 6z m-1030 -38 c-3 -8 -6 -5 -6 6 -1 11 2 17 5 13 3 -3 4 -12 1 -19z
m-1761 -29 c19 -22 19 -22 -3 -10 -13 6 -23 16 -23 21 0 15 5 12 26 -11z
m3254 -40 c17 -13 18 -17 5 -10 -33 17 -51 31 -40 31 6 0 21 -10 35 -21z m-60
7 c0 -2 -7 -6 -15 -10 -8 -3 -15 -1 -15 4 0 6 7 10 15 10 8 0 15 -2 15 -4z
m-1463 -73 c-3 -10 -5 -4 -5 12 0 17 2 24 5 18 2 -7 2 -21 0 -30z m1547 28 c4
-5 -3 -7 -14 -4 -23 6 -26 13 -6 13 8 0 17 -4 20 -9z m-3376 -37 c-4 -3 -12 5
-18 18 -12 22 -12 22 6 6 10 -10 15 -20 12 -24z m-63 6 c3 -5 1 -10 -4 -10 -6
0 -11 5 -11 10 0 6 2 10 4 10 3 0 8 -4 11 -10z m1969 -46 c3 -8 2 -12 -4 -9
-6 3 -10 10 -10 16 0 14 7 11 14 -7z m-372 -19 c0 -5 -5 -11 -11 -13 -6 -2
-11 4 -11 13 0 9 5 15 11 13 6 -2 11 -8 11 -13z m-1264 -51 c-4 -3 -12 5 -18
18 -12 22 -12 22 6 6 10 -10 15 -20 12 -24z m1560 11 c-3 -3 -9 2 -12 12 -6
14 -5 15 5 6 7 -7 10 -15 7 -18z m-1320 -16 c-3 -8 -7 -3 -11 10 -4 17 -3 21
5 13 5 -5 8 -16 6 -23z m1042 -13 c0 -12 -5 -7 -19 24 -11 24 -11 24 3 6 9
-11 16 -24 16 -30z m29 14 c5 -16 8 -30 6 -30 -2 0 -10 14 -19 30 -8 17 -11
30 -6 30 4 0 13 -13 19 -30z m-5880 1 c9 -6 22 -6 32 0 13 7 25 2 48 -17 23
-19 35 -23 48 -16 10 5 24 7 32 4 8 -3 11 0 7 6 -12 20 57 24 107 7 27 -9 58
-15 70 -15 40 4 46 0 44 -27 -2 -22 2 -28 18 -28 13 0 20 -7 20 -20 1 -12 7
-19 15 -17 11 3 11 0 1 -12 -11 -13 -10 -17 3 -22 9 -3 16 -14 16 -25 0 -10 9
-23 20 -29 11 -6 19 -19 18 -28 -2 -10 3 -16 11 -14 10 2 12 -5 8 -24 -3 -18
2 -33 14 -45 19 -19 19 -19 -1 -19 -15 0 -19 -5 -16 -22 3 -13 5 -25 5 -28 1
-3 6 2 11 10 9 13 10 13 11 0 0 -8 2 -27 4 -43 2 -15 0 -25 -4 -23 -3 3 -7 -4
-7 -14 0 -10 3 -17 7 -14 4 2 10 -8 13 -21 4 -14 11 -23 15 -20 5 3 11 -1 14
-7 2 -7 16 -13 32 -13 23 0 40 -14 51 -43 1 -1 9 0 18 4 9 3 16 17 16 30 0 13
4 24 10 24 5 0 12 11 16 25 3 14 10 26 15 26 5 1 14 3 19 4 6 1 14 3 20 4 5 0
9 4 8 9 0 4 2 15 6 24 6 14 12 15 26 8 13 -7 23 -6 32 3 7 8 19 12 27 9 7 -2
18 2 23 9 7 11 11 11 15 1 2 -6 10 -9 16 -5 6 4 8 0 4 -10 -4 -11 -1 -17 9
-17 9 0 12 -5 8 -12 -5 -8 -2 -9 10 -5 9 4 15 3 12 -1 -3 -5 8 -16 25 -26 16
-9 27 -21 24 -26 -3 -4 4 -6 15 -3 11 3 20 0 20 -6 0 -7 12 -5 34 6 44 20 66
12 66 -26 0 -42 -52 -71 -130 -71 -32 0 -71 -5 -85 -10 -15 -6 -57 -12 -93
-13 -37 -2 -79 -10 -92 -17 -14 -7 -26 -12 -28 -11 -1 2 -31 0 -66 -4 -57 -6
-65 -9 -70 -31 -4 -14 -16 -26 -31 -30 -29 -7 -34 -24 -7 -24 14 0 15 -2 2
-10 -9 -5 -19 -5 -27 2 -7 5 -28 11 -46 12 -31 1 -34 -1 -35 -27 0 -16 -5 -34
-10 -40 -5 -7 -8 -49 -6 -94 2 -70 0 -83 -13 -83 -11 0 -13 -3 -5 -13 14 -17
-7 -43 -33 -41 -40 4 -95 33 -89 49 4 10 0 15 -11 15 -9 0 -14 4 -10 9 7 12
-4 19 -44 26 -47 8 -110 51 -117 80 -3 14 -4 36 0 49 4 16 0 29 -14 41 -11 10
-22 38 -26 64 -4 25 -11 57 -17 71 -21 52 -30 119 -32 242 -1 85 -6 133 -15
143 -10 12 -10 25 -1 61 11 43 10 48 -11 71 -12 13 -28 21 -35 18 -21 -8 -53
18 -53 42 0 13 5 23 11 23 5 0 7 6 3 13 -5 9 -4 9 6 0 15 -14 40 -6 40 13 0
16 9 18 29 5z m4549 -46 c-3 -3 -9 2 -12 12 -6 14 -5 15 5 6 7 -7 10 -15 7
-18z m299 -7 c-3 -8 -6 -5 -6 6 -1 11 2 17 5 13 3 -3 4 -12 1 -19z m41 -3 c-3
-3 -9 2 -12 12 -6 14 -5 15 5 6 7 -7 10 -15 7 -18z m1017 5 c3 -5 1 -10 -4
-10 -6 0 -11 5 -11 10 0 6 2 10 4 10 3 0 8 -4 11 -10z m-57 -25 c-3 -3 -9 2
-12 12 -6 14 -5 15 5 6 7 -7 10 -15 7 -18z m-988 -16 c0 -6 -4 -7 -10 -4 -5 3
-10 11 -10 16 0 6 5 7 10 4 6 -3 10 -11 10 -16z m-80 -49 c18 -43 7 -47 -13
-5 -9 19 -13 35 -8 35 5 0 14 -14 21 -30z m68 -5 c-3 -3 -9 2 -12 12 -6 14 -5
15 5 6 7 -7 10 -15 7 -18z m-197 -12 c13 -16 12 -17 -3 -4 -10 7 -18 15 -18
17 0 8 8 3 21 -13z m-16 -13 c10 -11 16 -20 13 -20 -3 0 -13 9 -23 20 -10 11
-16 20 -13 20 3 0 13 -9 23 -20z m1200 11 c3 -5 1 -12 -4 -15 -5 -3 -11 1 -15
9 -6 16 9 21 19 6z m-956 -75 c0 -6 -5 2 -11 18 -8 22 -13 25 -20 15 -7 -11
-8 -9 -4 4 3 10 6 24 6 30 1 7 7 -3 15 -22 8 -18 15 -38 14 -45z m930 24 c0
-9 -4 -8 -9 5 -5 11 -9 27 -9 35 0 9 4 8 9 -5 5 -11 9 -27 9 -35z m-1012 -2
c-3 -8 -6 -5 -6 6 -1 11 2 17 5 13 3 -3 4 -12 1 -19z m997 -30 c8 -29 13 -54
11 -56 -2 -2 -11 20 -19 49 -18 58 -18 59 -12 59 3 0 11 -23 20 -52z m114 -79
c-3 -8 -7 -3 -11 10 -4 17 -3 21 5 13 5 -5 8 -16 6 -23z m-135 -54 l6 -30 -14
30 c-16 34 -21 72 -6 45 5 -8 11 -28 14 -45z m-2772 -37 c47 -77 105 -186 125
-238 9 -25 24 -53 33 -64 9 -10 15 -20 13 -22 -6 -8 41 -114 50 -114 5 0 4 9
-2 20 -6 11 -7 20 -1 20 10 0 64 -160 57 -168 -3 -3 -10 7 -15 22 -6 14 -13
26 -16 26 -2 0 4 -23 16 -52 17 -42 17 -49 4 -38 -9 8 -23 27 -31 43 -9 16
-18 26 -22 23 -3 -4 0 -12 6 -18 17 -17 15 -28 -4 -28 -8 0 -13 4 -10 9 3 4
-8 36 -25 71 -16 34 -28 65 -25 67 3 3 -1 12 -9 19 -8 8 -12 20 -9 27 2 8 -6
25 -18 39 -13 14 -24 32 -26 39 -4 15 -92 165 -126 214 -17 24 -30 75 -19 75
1 0 10 -16 19 -35 9 -19 23 -35 31 -35 13 0 13 2 2 17 -9 11 -10 14 -2 9 22
-12 34 -44 21 -52 -6 -4 -8 -3 -5 3 3 5 0 10 -7 10 -8 0 4 -28 32 -74 25 -40
47 -71 49 -69 6 5 -47 98 -60 107 -5 4 -4 9 2 13 6 4 23 -16 42 -49 17 -30 33
-55 35 -55 8 0 -27 75 -70 150 -54 94 -78 140 -72 140 2 0 19 -24 37 -52z
m1967 7 c-3 -3 -9 2 -12 12 -6 14 -5 15 5 6 7 -7 10 -15 7 -18z m-2079 -249
c27 -47 43 -101 24 -83 -8 8 -62 137 -58 137 2 0 17 -24 34 -54z m2071 19 c14
-19 14 -19 -2 -6 -10 7 -18 18 -18 24 0 6 1 8 3 6 1 -2 9 -13 17 -24z m-2090
-39 c29 -73 89 -168 101 -160 6 3 9 0 8 -7 -1 -8 1 -22 5 -31 5 -10 6 -23 3
-30 -3 -9 -7 -6 -13 7 -17 45 -55 95 -66 89 -7 -5 -9 -2 -6 8 4 8 2 21 -3 29
-6 10 -9 7 -9 -12 0 -15 7 -32 15 -39 10 -8 12 -17 6 -24 -6 -7 -6 -18 -1 -26
5 -8 6 -18 3 -23 -3 -5 -1 -12 5 -16 6 -3 14 -19 18 -35 5 -20 3 -27 -4 -22
-13 8 -42 64 -42 81 0 7 -7 18 -15 25 -9 8 -13 21 -10 31 4 12 -6 41 -25 74
-37 65 -34 71 8 15 l29 -40 1 36 c1 23 -2 33 -10 28 -6 -4 -8 -3 -4 4 3 6 -3
27 -14 47 -22 40 -24 45 -11 45 5 0 19 -24 31 -54z m118 6 c-5 -12 53 -142 63
-142 5 0 9 -5 9 -12 0 -6 -9 -3 -20 7 -11 10 -20 24 -20 32 0 7 -4 13 -10 13
-6 0 -6 -9 0 -26 6 -14 10 -33 9 -42 -1 -25 -29 56 -33 98 -2 19 -7 45 -11 58
-5 14 -3 22 4 22 6 0 10 -3 9 -8z m42 -12 c6 -11 8 -20 6 -20 -3 0 -10 9 -16
20 -6 11 -8 20 -6 20 3 0 10 -9 16 -20z m-236 -101 c-2 -4 0 -10 6 -14 5 -3
10 -11 10 -18 0 -6 -7 -2 -15 9 -8 10 -14 28 -15 39 0 16 2 17 9 5 6 -8 8 -17
5 -21z m290 -4 c-4 -8 -11 -15 -16 -15 -6 0 -5 6 2 15 7 8 14 15 16 15 2 0 1
-7 -2 -15z m30 -23 c3 -5 -1 -9 -9 -9 -8 0 -12 4 -9 9 3 4 7 8 9 8 2 0 6 -4 9
-8z m-264 -63 c15 -28 5 -23 -15 7 -9 15 -12 23 -6 20 6 -4 16 -16 21 -27z
m-380 -64 c0 -11 -14 7 -31 40 -7 13 -3 12 10 -5 11 -14 21 -29 21 -35z m429
-11 c29 -48 26 -55 -4 -14 -23 31 -31 50 -21 50 2 0 13 -16 25 -36z m-673
-101 c-2 -3 2 -20 10 -38 16 -39 18 -65 5 -65 -7 0 -21 36 -21 55 0 3 -10 21
-21 42 -11 20 -22 59 -24 87 l-3 51 29 -64 c17 -35 28 -65 25 -68z m821 -1
c18 -35 28 -60 22 -57 -6 4 -15 18 -20 33 -7 19 -13 22 -21 14 -9 -9 -6 -18
13 -39 20 -23 18 -22 -14 5 -21 18 -42 30 -46 27 -13 -7 -42 31 -45 59 -3 25
-2 26 15 10 21 -19 26 -40 7 -28 -7 4 -8 3 -4 -5 6 -9 11 -9 22 0 12 9 13 9 9
-3 -7 -18 24 -33 38 -19 5 5 1 17 -12 30 -12 12 -19 21 -16 21 2 0 0 11 -5 24
-11 31 2 44 14 14 6 -13 25 -51 43 -86z m-798 68 c11 -24 11 -24 -3 -6 -9 11
-16 24 -16 30 0 12 5 7 19 -24z m228 8 c-3 -8 -6 -5 -6 6 -1 11 2 17 5 13 3
-3 4 -12 1 -19z m5543 -48 c13 -25 13 -100 -1 -100 -5 0 -8 -4 -5 -8 2 -4 -3
-17 -12 -30 -17 -21 -56 -29 -98 -19 -17 4 -21 1 -20 -16 1 -15 -4 -22 -16
-21 -10 1 -18 -2 -18 -7 0 -5 -5 -9 -11 -9 -5 0 -8 4 -4 9 11 19 -15 21 -41 5
-22 -15 -27 -15 -35 -3 -7 11 -9 11 -9 -4 0 -10 -4 -16 -10 -12 -5 3 -7 12 -4
19 3 8 -4 16 -16 19 -13 3 -23 0 -27 -9 -6 -17 -50 -15 -65 3 -8 10 -7 12 5 7
12 -4 14 -1 10 15 -3 12 -1 21 4 21 5 0 15 22 23 50 7 27 18 46 23 43 6 -3 15
1 21 9 6 8 19 17 29 21 9 3 17 13 17 22 0 21 20 19 20 -2 1 -17 1 -17 14 0 17
22 26 22 26 -3 0 -14 6 -19 18 -16 31 6 52 18 46 27 -3 5 1 10 8 10 44 4 71 9
75 13 9 8 42 -13 53 -34z m-6076 14 c3 -8 2 -12 -4 -9 -6 3 -10 10 -10 16 0
14 7 11 14 -7z m182 -53 c3 0 9 -3 12 -7 4 -4 1 -4 -5 0 -22 12 -15 -3 27 -60
23 -30 38 -60 34 -66 -4 -7 -3 -8 4 -4 7 4 12 5 12 2 0 -2 3 -13 6 -23 5 -15
4 -15 -5 -3 -7 10 -11 11 -11 3 0 -21 -17 -15 -23 8 -4 14 -10 18 -19 13 -7
-4 -10 -4 -6 1 4 4 0 21 -8 37 -9 17 -13 32 -10 36 3 3 0 12 -7 21 -8 9 -24
34 -36 56 l-23 40 26 -28 c14 -15 28 -27 32 -26z m157 17 c6 -22 5 -22 -8 -4
-17 22 -20 40 -6 32 5 -3 11 -16 14 -28z m5467 22 c0 -5 -4 -10 -10 -10 -5 0
-10 5 -10 10 0 6 5 10 10 10 6 0 10 -4 10 -10z m-5710 -20 c6 -11 8 -20 5 -20
-3 0 2 -12 12 -27 l16 -28 -22 21 c-12 11 -23 27 -24 35 -2 8 -6 20 -10 27 -5
6 -4 12 2 12 6 0 15 -9 21 -20z m-61 -24 c-3 -3 -11 5 -18 17 -13 21 -12 21 5
5 10 -10 16 -20 13 -22z m-46 -16 c3 -11 2 -18 -3 -15 -4 3 -10 14 -13 25 -3
11 -2 18 3 15 4 -3 10 -14 13 -25z m172 -33 c25 -49 25 -51 4 -30 -22 21 -55
98 -38 87 5 -2 20 -28 34 -57z m205 10 c0 -5 -4 -5 -10 -2 -5 3 -10 14 -10 23
0 15 2 15 10 2 5 -8 10 -19 10 -23z m5108 -22 c-3 -3 -9 2 -12 12 -6 14 -5 15
5 6 7 -7 10 -15 7 -18z m-5444 -1 c3 -8 2 -12 -4 -9 -6 3 -10 10 -10 16 0 14
7 11 14 -7z m219 -4 c3 -11 1 -18 -4 -14 -5 3 -9 12 -9 20 0 20 7 17 13 -6z
m-224 -35 c0 -5 -6 -1 -14 9 -8 11 -15 24 -15 30 0 5 7 1 15 -10 8 -10 14 -23
14 -29z m147 -15 c21 -24 22 -50 2 -50 -7 0 -7 5 0 13 8 10 3 21 -23 45 -19
17 -35 34 -35 38 0 9 29 -15 56 -46z m-157 -14 c-3 -3 -11 5 -18 17 -13 21
-12 21 5 5 10 -10 16 -20 13 -22z m4393 1 c21 0 41 -4 44 -8 9 -16 34 -9 34 9
1 16 2 16 13 0 7 -9 20 -16 28 -16 49 3 90 -4 104 -18 8 -9 22 -13 30 -10 8 3
15 1 15 -4 0 -6 6 -9 13 -7 6 1 11 -4 10 -10 -4 -18 13 -16 33 4 13 13 16 14
12 3 -5 -16 18 -39 41 -40 8 0 11 6 6 18 -5 14 -4 15 7 4 11 -11 10 -16 -7
-28 -18 -13 -18 -14 10 -9 26 6 36 0 75 -41 25 -26 44 -52 42 -58 -2 -5 4 -4
12 4 13 10 16 10 16 -3 0 -9 -4 -19 -10 -22 -5 -3 -10 -11 -10 -16 0 -6 4 -8
9 -5 4 3 16 -3 26 -14 10 -11 26 -20 36 -20 10 0 21 -5 25 -12 4 -7 3 -8 -5
-4 -15 10 -36 -13 -38 -41 -1 -18 4 -23 23 -23 13 0 24 -4 24 -9 0 -5 -11 -8
-24 -7 -17 2 -23 -1 -19 -11 3 -8 13 -11 23 -8 11 4 28 -6 48 -27 18 -17 33
-30 34 -27 19 30 28 52 28 65 0 20 31 74 43 74 5 0 6 -7 3 -16 -3 -8 -2 -12 4
-9 5 3 19 1 31 -5 18 -10 20 -9 17 12 -2 13 -10 23 -18 23 -27 0 -36 18 -35
72 1 29 -2 53 -7 53 -9 0 -10 35 -2 68 5 16 13 22 28 20 15 -2 22 3 24 20 3
18 9 22 34 20 18 -1 33 3 36 10 2 6 10 12 17 12 23 0 65 22 59 32 -3 4 16 6
42 4 26 -3 50 -10 54 -17 5 -7 10 -8 14 -1 3 6 2 13 -4 17 -15 9 -12 22 5 22
8 0 12 -4 9 -8 -2 -4 0 -11 6 -14 6 -4 8 -15 5 -26 -4 -11 0 -26 9 -35 9 -8
16 -21 16 -29 0 -7 7 -16 16 -19 8 -3 12 -10 9 -16 -3 -5 1 -10 9 -10 8 0 17
4 21 9 8 14 91 -39 106 -67 25 -44 -44 -83 -236 -134 -22 -6 -47 -13 -55 -16
-8 -3 -18 -6 -22 -6 -3 -1 -10 -4 -14 -8 -4 -5 -16 -8 -27 -8 -11 0 -21 -9
-24 -21 -4 -16 -8 -18 -14 -7 -6 9 -11 10 -16 2 -5 -6 -24 -14 -44 -18 -39 -7
-58 -23 -82 -71 -10 -20 -11 -35 -5 -45 6 -10 6 -25 -1 -43 -10 -24 -13 -26
-31 -15 -25 16 -36 46 -21 61 21 21 12 57 -19 75 -16 9 -30 23 -30 30 0 15
-12 16 -28 0 -16 -16 -15 -23 5 -43 14 -14 14 -18 2 -26 -10 -6 -10 -9 -1 -9
6 0 12 -5 12 -11 0 -5 -4 -8 -9 -4 -5 3 -12 1 -16 -5 -3 -5 -1 -10 5 -10 8 0
10 -9 6 -25 -5 -21 -3 -25 16 -26 13 -1 28 -1 34 0 7 1 14 -5 18 -14 3 -8 0
-15 -6 -15 -7 0 -7 -5 2 -15 9 -11 5 -20 -22 -48 -29 -29 -39 -33 -72 -29 -21
2 -48 0 -59 -6 -25 -12 -255 -32 -364 -32 -40 0 -73 -4 -73 -9 0 -5 -22 -12
-49 -16 -28 -4 -64 -17 -83 -32 -35 -26 -98 -56 -105 -49 -2 2 -38 -14 -80
-35 -42 -21 -79 -39 -83 -39 -4 0 -16 8 -27 18 -15 13 -19 28 -18 65 1 26 -2
47 -7 47 -5 0 -8 10 -6 23 2 12 9 21 16 19 6 -1 12 2 12 8 0 5 17 12 37 16 21
4 44 13 51 21 7 7 21 13 30 13 15 0 15 2 2 10 -8 5 -15 13 -16 17 -6 40 -19
76 -30 80 -8 3 -12 14 -9 27 4 15 -6 33 -37 67 -51 55 -94 69 -132 44 -14 -9
-29 -16 -33 -16 -4 1 -21 -9 -38 -21 -16 -12 -40 -21 -52 -20 -11 2 -24 -2
-28 -7 -3 -6 -14 -11 -23 -11 -9 0 -30 -13 -45 -30 -25 -26 -29 -40 -34 -102
-3 -49 -11 -81 -24 -99 -10 -15 -19 -34 -19 -42 0 -9 -15 -20 -33 -26 -31 -11
-135 -25 -167 -24 -154 8 -249 -1 -277 -26 -32 -28 -62 -41 -68 -31 -3 5 -3
25 0 43 5 24 17 40 45 57 21 13 37 28 34 32 -3 4 7 9 23 9 58 3 75 7 83 19 4
7 10 8 13 3 4 -6 23 -9 44 -8 40 3 71 -9 89 -33 9 -13 15 -10 35 17 13 18 39
39 58 47 28 12 33 18 29 39 -3 13 -2 22 2 20 12 -7 42 44 34 57 -4 6 -3 8 4 4
19 -12 21 9 6 59 -14 47 -11 90 6 80 4 -3 11 7 15 23 11 43 23 52 53 41 17 -6
28 -7 30 -1 4 13 45 2 58 -16 16 -22 44 -8 57 28 6 17 17 30 24 30 7 0 12 3
12 8 -3 19 2 23 15 13 12 -10 17 -2 32 41 10 29 17 57 16 62 -2 4 2 14 8 20 5
7 7 16 3 19 -3 4 -1 7 5 7 7 0 12 9 12 19 0 23 55 47 64 28 5 -9 7 -9 12 1 3
6 16 12 29 12 13 0 25 5 27 10 2 6 13 12 26 13 13 1 21 6 18 13 -6 15 28 47
39 37 4 -5 5 -3 2 3 -8 14 28 48 42 40 5 -3 11 -1 13 6 7 19 99 27 127 10 14
-8 42 -15 63 -15z m-4327 -17 c10 -11 16 -20 13 -20 -3 0 -13 9 -23 20 -10 11
-16 20 -13 20 3 0 13 -9 23 -20z m-22 -51 c3 -10 1 -17 -4 -13 -5 3 -9 -2 -9
-10 0 -9 6 -13 14 -10 10 4 21 -6 31 -28 l17 -33 -26 30 c-33 39 -34 22 -1
-21 14 -18 25 -36 25 -40 0 -13 -15 7 -55 70 -25 39 -32 57 -21 53 21 -8 20 2
-1 33 -17 25 -17 25 4 7 12 -10 23 -27 26 -38z m-59 25 c3 -8 2 -12 -4 -9 -6
3 -10 10 -10 16 0 14 7 11 14 -7z m250 -66 c2 -18 6 -42 10 -53 4 -11 -2 -4
-13 15 -11 19 -18 43 -15 53 3 9 1 17 -5 17 -6 0 -8 7 -4 16 5 15 7 15 15 0 5
-9 10 -30 12 -48z m59 24 c11 -18 16 -32 13 -32 -3 0 -13 14 -21 31 -25 48
-27 29 -4 -47 11 -38 23 -78 25 -89 7 -30 -45 93 -55 131 -15 55 11 59 42 6z
m-293 -63 c0 -6 -4 -7 -10 -4 -5 3 -10 11 -10 16 0 6 5 7 10 4 6 -3 10 -11 10
-16z m25 11 c3 -5 1 -10 -4 -10 -6 0 -11 5 -11 10 0 6 2 10 4 10 3 0 8 -4 11
-10z m5083 -35 c-3 -3 -9 2 -12 12 -6 14 -5 15 5 6 7 -7 10 -15 7 -18z m-5068
-17 c0 -5 -7 -3 -15 6 -8 8 -15 18 -15 22 0 3 7 1 15 -6 8 -7 15 -17 15 -22z
m4920 -58 c0 -5 -5 -10 -11 -10 -5 0 -7 5 -4 10 3 6 8 10 11 10 2 0 4 -4 4
-10z m-2399 -521 c12 -27 26 -49 31 -49 5 0 7 -4 4 -8 -3 -5 1 -9 9 -9 10 0 8
12 -11 48 -13 27 -24 51 -24 55 0 12 44 -49 46 -64 5 -29 14 -43 25 -36 8 4 9
3 5 -4 -4 -7 6 -24 22 -40 15 -15 27 -33 25 -39 -2 -5 9 -18 24 -28 24 -16 26
-16 14 -2 -7 9 -10 17 -6 17 5 0 1 8 -8 18 -8 9 -18 32 -20 50 -3 19 -13 42
-21 51 -20 22 -20 31 -1 31 8 0 24 -18 35 -40 23 -46 25 -53 8 -45 -7 3 -3 -2
10 -11 12 -9 22 -22 22 -30 0 -23 21 -27 42 -7 12 10 18 13 15 6 -4 -6 -3 -14
3 -18 6 -4 8 -10 6 -13 -2 -4 5 -19 16 -32 l20 -25 -16 27 c-12 20 -13 29 -4
34 7 4 14 2 16 -5 3 -9 7 -8 16 3 16 22 39 5 39 -29 0 -17 2 -22 7 -15 5 8 13
9 21 4 12 -7 12 -5 1 9 -12 14 -12 19 1 31 13 14 15 12 20 -11 5 -28 -6 -54
-38 -89 -25 -27 -52 -37 -59 -21 -2 7 -5 4 -5 -7 -1 -13 -6 -17 -21 -13 -13 3
-20 0 -20 -9 0 -8 -5 -14 -11 -14 -5 0 -8 -4 -5 -8 3 -5 -7 -15 -22 -23 -14
-8 -35 -22 -45 -32 -18 -18 -20 -18 -38 -1 -10 9 -19 23 -19 29 0 7 -7 18 -15
25 -8 6 -14 15 -13 18 1 4 -4 20 -10 35 -7 16 -12 34 -13 40 0 7 -3 5 -6 -3
-4 -8 -13 -21 -22 -30 -13 -13 -14 -13 -9 2 4 9 2 18 -4 20 -7 3 -8 10 -3 18
12 20 16 61 4 54 -14 -8 -38 56 -34 90 3 20 -4 39 -21 59 -25 29 -32 57 -14
57 20 0 9 25 -27 64 l-38 39 46 -37 c28 -23 56 -58 70 -87z m-3874 -161 c-3
-8 -6 -5 -6 6 -1 11 2 17 5 13 3 -3 4 -12 1 -19z m4173 12 c0 -5 -2 -10 -4
-10 -3 0 -8 5 -11 10 -3 6 -1 10 4 10 6 0 11 -4 11 -10z m131 -34 c-6 -7 -9
-16 -6 -20 3 -3 0 -2 -5 2 -13 11 -2 44 12 36 5 -4 5 -11 -1 -18z m-4151 1 c0
-14 -50 -71 -56 -64 -3 3 -2 16 2 31 4 18 13 26 28 26 17 0 18 2 6 10 -13 8
-12 10 3 10 9 0 17 -6 17 -13z m3606 -22 c-3 -8 -11 -15 -18 -14 -10 0 -10 2
0 6 6 2 12 14 13 26 0 12 3 16 6 9 3 -7 2 -19 -1 -27z m-3709 -62 c0 -9 -4
-10 -14 -2 -7 6 -13 18 -13 26 0 11 3 11 13 1 8 -7 14 -18 14 -25z m265 -8 c6
-13 26 -31 44 -40 18 -8 36 -20 40 -26 3 -6 40 -26 82 -45 43 -20 84 -39 92
-45 50 -30 70 -39 70 -29 0 6 4 9 9 5 5 -3 16 2 25 11 21 20 40 9 26 -16 -5
-10 -16 -25 -25 -33 -15 -16 -21 -13 78 -49 17 -7 48 -28 68 -48 35 -35 40
-37 108 -38 58 -1 75 -5 89 -21 21 -24 69 -40 57 -20 -6 11 -5 12 6 2 7 -7 22
-13 34 -13 11 0 26 -9 33 -21 10 -16 19 -19 43 -14 33 7 69 -11 106 -54 21
-23 25 -24 56 -13 39 14 74 16 81 3 13 -20 -32 -36 -129 -47 -105 -11 -124
-11 -175 -4 -57 8 -115 -3 -141 -26 -8 -8 -24 -14 -35 -14 -26 0 -44 -19 -44
-44 0 -12 -3 -16 -8 -10 -4 5 -16 10 -27 10 -11 0 -33 8 -48 18 -15 11 -39 20
-52 21 -13 2 -28 6 -34 9 -5 4 -15 0 -22 -7 -10 -10 -22 -11 -51 -3 -21 6 -38
14 -38 18 0 4 -7 8 -15 8 -10 0 -15 10 -15 29 0 29 -47 81 -74 81 -6 0 -29 9
-49 19 l-38 19 6 -21 c3 -12 -6 1 -19 28 -14 28 -32 76 -41 108 -12 43 -20 57
-34 57 -10 0 -23 12 -30 26 -9 21 -17 25 -36 21 -21 -4 -31 4 -63 52 -21 31
-41 64 -45 74 -9 24 -36 32 -60 18 -17 -11 -23 -10 -41 9 l-21 22 45 -5 c25
-3 68 -7 96 -11 50 -5 52 -5 46 17 -5 20 -4 21 13 7 17 -14 18 -14 6 9 -11 19
-11 25 0 32 24 15 39 10 51 -16z m1849 -1 c14 -13 16 -21 8 -42 -7 -18 -6 -28
2 -36 9 -8 10 -8 5 2 -11 19 13 14 37 -8 12 -12 23 -16 25 -10 2 5 8 10 14 10
15 0 58 -43 58 -58 0 -7 4 -11 9 -8 5 4 7 -3 4 -15 -4 -16 -8 -17 -14 -7 -6 9
-9 7 -9 -9 0 -12 9 -28 20 -36 11 -8 17 -17 13 -21 -4 -4 0 -4 10 0 10 3 17 1
17 -5 0 -7 8 -15 18 -18 9 -4 28 -17 42 -30 18 -16 26 -19 32 -10 5 8 8 6 8
-6 0 -10 5 -15 10 -12 6 3 10 3 10 -2 0 -4 17 -19 38 -33 20 -13 47 -34 60
-47 13 -12 30 -19 38 -16 8 3 22 -1 32 -9 25 -22 46 -33 39 -21 -4 6 0 13 8
17 8 3 17 0 21 -6 4 -7 3 -8 -4 -4 -7 4 -12 3 -12 -3 0 -19 17 -20 69 -6 60
16 101 11 119 -13 11 -15 9 -19 -15 -29 -18 -8 -22 -12 -10 -13 9 0 17 -4 17
-9 0 -5 12 -24 27 -41 22 -26 24 -33 12 -41 -27 -19 -104 -51 -153 -65 -108
-29 -616 9 -616 47 0 4 -8 7 -17 6 -17 -1 -88 28 -218 88 -69 32 -134 81 -145
110 -5 14 -18 25 -28 25 -9 0 -27 7 -39 15 -17 12 -23 12 -27 2 -5 -9 -7 -9
-12 0 -3 7 -11 10 -17 7 -7 -2 -18 5 -24 16 -11 16 -10 18 2 14 17 -7 12 16
-11 50 -11 16 -10 24 2 47 16 32 45 37 90 17 22 -10 28 -10 32 0 2 7 8 10 13
6 10 -6 7 46 -4 63 -4 7 -2 15 5 19 17 11 79 5 95 -8 17 -13 46 9 39 29 -4 8
-1 11 5 8 5 -4 18 2 27 13 9 10 23 17 30 15 6 -3 12 0 12 6 0 6 6 11 14 11 8
0 18 9 21 20 3 11 12 20 18 21 7 1 27 2 46 3 19 1 36 7 39 14 5 17 42 15 63
-4z m1534 -1 c-2 -10 -4 -22 -5 -28 -1 -5 -5 -1 -9 10 -5 12 -4 23 3 27 15 10
15 10 11 -9z m235 -23 c0 -5 -4 -10 -10 -10 -5 0 -10 5 -10 10 0 6 5 10 10 10
6 0 10 -4 10 -10z m-264 -22 c5 -8 2 -9 -10 -5 -15 6 -17 4 -11 -10 16 -38 16
-50 1 -62 -13 -11 -16 -11 -16 -1 0 10 -4 10 -16 -1 -13 -10 -17 -10 -25 2 -5
8 -7 20 -4 27 3 7 0 10 -5 7 -6 -3 -10 -1 -10 4 0 6 6 11 13 11 6 0 23 9 37
20 29 23 36 24 46 8z m179 -108 c11 -5 14 -9 7 -9 -7 -1 -10 -6 -7 -11 4 -6 3
-10 -2 -9 -42 7 -43 -20 -3 -61 17 -17 30 -33 30 -36 0 -11 -70 -33 -86 -27
-12 5 -15 3 -9 -6 6 -10 -5 -12 -46 -10 -30 1 -62 -1 -71 -4 -43 -16 -52 -17
-67 -3 -21 19 -93 10 -120 -15 -15 -14 -42 -21 -96 -26 -64 -5 -78 -3 -95 12
-11 10 -30 19 -43 21 -12 1 -25 3 -28 3 -11 2 -28 55 -25 81 2 16 10 26 22 28
10 2 42 14 70 28 28 13 60 23 70 23 17 -1 17 -2 2 -6 -10 -2 -18 -9 -18 -15 0
-6 10 -8 24 -4 13 3 40 -1 60 -9 25 -11 36 -12 36 -4 0 8 4 8 15 -1 12 -10 20
-9 39 3 21 14 26 14 36 2 7 -8 16 -12 21 -9 5 3 9 0 9 -6 0 -8 6 -8 20 0 14 7
20 8 20 0 0 -6 11 -3 25 6 15 10 32 13 42 9 10 -4 33 -11 51 -15 26 -6 32 -5
33 9 0 10 2 11 6 4 4 -10 7 -10 16 0 25 25 42 51 30 44 -6 -4 -14 -3 -17 2 -3
5 -15 7 -26 4 -11 -3 -20 0 -20 6 0 13 65 14 95 1z m-62 -37 c-7 -2 -19 -2
-25 0 -7 3 -2 5 12 5 14 0 19 -2 13 -5z"/>
<path d="M3690 8880 c-8 -5 -12 -12 -9 -15 4 -3 12 1 19 10 14 17 11 19 -10 5z"/>
<path d="M6334 8279 c-3 -6 -2 -15 4 -21 6 -6 12 -6 17 3 6 8 4 10 -5 4 -10
-6 -12 -4 -7 8 7 19 2 23 -9 6z"/>
<path d="M6374 8268 c-4 -7 -3 -8 4 -4 7 4 12 1 12 -8 0 -9 5 -16 10 -16 7 0
7 6 0 20 -12 23 -16 24 -26 8z"/>
<path d="M6437 8200 c3 -11 9 -17 15 -14 5 3 4 12 -3 20 -16 19 -18 18 -12 -6z"/>
<path d="M6479 8202 c7 -5 9 -11 4 -13 -6 -2 -3 -12 7 -21 14 -15 17 -15 17
-3 0 8 -4 15 -9 15 -4 0 -7 5 -5 11 1 6 -5 14 -13 16 -12 4 -12 3 -1 -5z"/>
<path d="M3240 8191 c0 -5 5 -13 10 -16 6 -3 10 -2 10 4 0 5 -4 13 -10 16 -5
3 -10 2 -10 -4z"/>
<path d="M6540 8184 c0 -17 18 -36 30 -32 7 2 4 10 -9 22 -12 11 -21 15 -21
10z"/>
<path d="M6520 8166 c0 -9 5 -16 10 -16 6 0 10 4 10 9 0 6 -4 13 -10 16 -5 3
-10 -1 -10 -9z"/>
<path d="M6510 8120 c6 -11 12 -20 14 -20 2 0 2 9 -1 20 -3 11 -9 20 -15 20
-5 0 -4 -9 2 -20z"/>
<path d="M4550 8076 c0 -3 9 -10 20 -16 11 -6 20 -8 20 -6 0 3 -9 10 -20 16
-11 6 -20 8 -20 6z"/>
<path d="M3204 7920 c0 -11 4 -20 8 -20 4 0 8 6 8 14 0 8 6 17 13 19 6 3 3 6
-8 6 -14 1 -21 -5 -21 -19z"/>
<path d="M3185 7850 c-3 -5 -2 -10 4 -10 5 0 13 5 16 10 3 6 2 10 -4 10 -5 0
-13 -4 -16 -10z"/>
<path d="M3165 7770 c3 -5 8 -10 11 -10 2 0 4 5 4 10 0 6 -5 10 -11 10 -5 0
-7 -4 -4 -10z"/>
<path d="M6705 7740 c-3 -6 -11 -8 -16 -5 -5 4 -9 1 -9 -4 0 -6 5 -11 10 -11
6 0 10 -7 10 -15 0 -8 5 -15 11 -15 6 0 9 7 5 15 -3 8 0 14 7 12 15 -3 16 25
0 30 -6 2 -14 -1 -18 -7z m25 -4 c0 -2 -7 -7 -16 -10 -8 -3 -12 -2 -9 4 6 10
25 14 25 6z"/>
<path d="M3180 7718 c12 -14 13 -31 2 -24 -4 2 -8 -4 -8 -14 0 -11 5 -21 11
-23 14 -6 13 50 -2 63 -10 7 -10 7 -3 -2z"/>
<path d="M3150 7667 c0 -7 9 -20 20 -30 11 -9 20 -13 20 -8 0 5 -7 14 -15 21
-8 7 -12 16 -9 21 3 5 0 9 -5 9 -6 0 -11 -6 -11 -13z"/>
<path d="M6690 7655 c0 -7 -8 -18 -17 -24 -21 -12 -13 -24 11 -15 14 5 24 54
11 54 -3 0 -5 -7 -5 -15z"/>
<path d="M6660 7650 c0 -7 -7 -9 -17 -5 -14 5 -15 3 -6 -5 7 -8 17 -9 28 -2
12 6 14 11 6 16 -6 4 -11 2 -11 -4z"/>
<path d="M4730 7646 c0 -2 8 -10 18 -17 15 -13 16 -12 3 4 -13 16 -21 21 -21
13z"/>
<path d="M6625 7609 c-11 -16 -1 -19 13 -3 7 8 8 14 3 14 -5 0 -13 -5 -16 -11z"/>
<path d="M3190 7566 c0 -2 7 -6 15 -10 8 -3 15 -1 15 4 0 6 -7 10 -15 10 -8 0
-15 -2 -15 -4z"/>
<path d="M6581 7504 c0 -11 3 -14 6 -6 3 7 2 16 -1 19 -3 4 -6 -2 -5 -13z"/>
<path d="M4930 7411 c0 -6 4 -13 10 -16 6 -3 7 1 4 9 -7 18 -14 21 -14 7z"/>
<path d="M3266 7214 c-5 -14 -4 -15 9 -4 17 14 19 20 6 20 -5 0 -12 -7 -15
-16z"/>
<path d="M6426 7131 c-3 -5 1 -14 9 -21 10 -9 15 -9 15 -1 0 6 -5 11 -11 11
-5 0 -7 5 -4 10 3 6 4 10 1 10 -3 0 -7 -4 -10 -9z"/>
<path d="M5089 7012 c11 -22 25 -44 31 -47 6 -4 1 12 -11 34 -12 23 -25 44
-31 47 -5 3 0 -12 11 -34z"/>
<path d="M5140 6981 c0 -6 4 -13 10 -16 6 -3 7 1 4 9 -7 18 -14 21 -14 7z"/>
<path d="M5190 6953 c0 -6 8 -17 18 -24 16 -13 16 -13 2 6 -8 11 -16 22 -17
24 -2 2 -3 0 -3 -6z"/>
<path d="M5690 6949 c0 -5 9 -9 20 -9 11 0 20 4 20 8 0 4 -9 8 -20 9 -11 1
-20 -2 -20 -8z"/>
<path d="M5095 6890 c3 -5 8 -10 11 -10 2 0 4 5 4 10 0 6 -5 10 -11 10 -5 0
-7 -4 -4 -10z"/>
<path d="M5081 6870 c14 -31 19 -36 19 -24 0 6 -7 19 -16 30 -14 18 -14 18 -3
-6z"/>
<path d="M6486 6855 c-3 -8 -1 -15 4 -15 6 0 10 7 10 15 0 8 -2 15 -4 15 -2 0
-6 -7 -10 -15z"/>
<path d="M6562 6703 c-6 -2 -9 -10 -5 -16 4 -7 0 -8 -11 -4 -10 4 -15 3 -11
-3 10 -17 32 -11 38 10 3 11 4 20 4 19 -1 0 -8 -3 -15 -6z"/>
<path d="M6186 6517 c3 -10 9 -15 12 -12 3 3 0 11 -7 18 -10 9 -11 8 -5 -6z"/>
<path d="M6617 6513 c-10 -9 -9 -23 2 -23 5 0 11 7 15 15 5 15 -5 20 -17 8z"/>
<path d="M5223 6434 c3 -6 8 -23 11 -39 3 -15 11 -33 17 -39 9 -8 10 -8 5 2
-5 7 -9 24 -11 38 -1 14 -8 31 -15 37 -7 7 -10 7 -7 1z"/>
<path d="M6571 6324 c0 -11 3 -14 6 -6 3 7 2 16 -1 19 -3 4 -6 -2 -5 -13z"/>
<path d="M6760 6280 c0 -5 5 -10 11 -10 5 0 7 5 4 10 -3 6 -8 10 -11 10 -2 0
-4 -4 -4 -10z"/>
<path d="M5280 6236 c0 -8 4 -17 9 -20 5 -4 7 3 4 14 -6 23 -13 26 -13 6z"/>
<path d="M5300 6196 c0 -2 7 -9 15 -16 13 -11 14 -10 9 4 -5 14 -24 23 -24 12z"/>
<path d="M6611 6184 c0 -11 3 -14 6 -6 3 7 2 16 -1 19 -3 4 -6 -2 -5 -13z"/>
<path d="M5423 5985 c0 -8 3 -13 5 -10 3 3 12 0 19 -7 11 -9 16 -9 23 2 10 17
12 16 -21 23 -19 5 -26 3 -26 -8z"/>
<path d="M5430 5955 c0 -2 10 -10 23 -16 20 -11 21 -11 8 4 -13 16 -31 23 -31
12z"/>
<path d="M6590 5710 c6 -11 13 -20 16 -20 2 0 0 9 -6 20 -6 11 -13 20 -16 20
-2 0 0 -9 6 -20z"/>
<path d="M7130 5716 c0 -2 8 -10 18 -17 15 -13 16 -12 3 4 -13 16 -21 21 -21
13z"/>
<path d="M6974 5541 c0 -10 6 -18 13 -18 7 0 13 4 13 7 0 4 -6 12 -13 18 -10
8 -13 6 -13 -7z"/>
<path d="M6160 5533 c1 -11 59 -120 60 -112 0 10 -51 119 -56 119 -2 0 -4 -3
-4 -7z"/>
<path d="M6211 5508 c1 -16 17 -56 18 -44 1 4 10 -2 21 -15 20 -24 20 -24 0
18 -20 43 -41 64 -39 41z"/>
<path d="M6980 5490 c6 -11 16 -20 22 -20 6 0 3 9 -7 20 -10 11 -20 20 -22 20
-2 0 1 -9 7 -20z"/>
<path d="M7106 5460 c3 -19 10 -39 15 -44 13 -14 10 2 -7 44 l-14 35 6 -35z"/>
<path d="M7495 5480 c-3 -5 -1 -10 4 -10 6 0 11 5 11 10 0 6 -2 10 -4 10 -3 0
-8 -4 -11 -10z"/>
<path d="M7565 5457 c-4 -10 -5 -21 -1 -24 10 -10 18 4 13 24 -4 17 -4 17 -12
0z"/>
<path d="M7690 5424 c0 -8 5 -12 10 -9 6 3 10 10 10 16 0 5 -4 9 -10 9 -5 0
-10 -7 -10 -16z"/>
<path d="M7350 5370 c0 -5 5 -10 11 -10 5 0 7 5 4 10 -3 6 -8 10 -11 10 -2 0
-4 -4 -4 -10z"/>
<path d="M7221 5343 c0 -4 4 -17 9 -28 8 -19 9 -19 9 2 1 12 -3 25 -9 28 -5 3
-10 3 -9 -2z"/>
<path d="M7360 5338 c0 -6 7 -8 15 -4 8 3 15 1 15 -4 0 -6 5 -10 12 -10 9 0 9
3 0 12 -15 15 -42 19 -42 6z"/>
<path d="M8196 5338 c3 -5 10 -6 15 -3 13 9 11 12 -6 12 -8 0 -12 -4 -9 -9z"/>
<path d="M7450 5330 c-12 -7 -11 -15 8 -53 12 -24 22 -50 22 -56 0 -7 4 -10
10 -6 5 3 1 24 -10 51 -29 66 -24 77 6 15 15 -28 28 -50 31 -47 2 2 -4 19 -14
38 -10 18 -18 39 -18 47 0 18 -16 23 -35 11z"/>
<path d="M7213 5277 c1 -14 5 -23 9 -21 3 2 8 1 11 -3 2 -5 2 -2 1 5 -2 6 1
12 6 12 6 0 10 -5 10 -12 0 -6 2 -9 5 -6 9 9 -7 38 -17 32 -6 -4 -14 -1 -18 6
-5 8 -8 4 -7 -13z"/>
<path d="M7386 5270 c3 -19 10 -39 16 -45 11 -12 0 42 -14 65 -6 10 -7 3 -2
-20z"/>
<path d="M7530 5291 c0 -6 4 -13 10 -16 6 -3 7 1 4 9 -7 18 -14 21 -14 7z"/>
<path d="M6719 5266 c19 -47 32 -67 42 -61 5 4 3 13 -6 21 -8 9 -13 19 -10 23
2 5 -5 17 -16 27 -20 18 -20 18 -10 -10z"/>
<path d="M7327 5283 c-4 -3 -7 -11 -7 -17 0 -6 5 -5 12 2 6 6 9 14 7 17 -3 3
-9 2 -12 -2z"/>
<path d="M7360 5256 c0 -8 -6 -17 -12 -19 -7 -3 -3 -6 9 -6 16 -1 20 3 16 19
-6 23 -13 26 -13 6z"/>
<path d="M7260 5216 c0 -8 4 -17 9 -20 5 -4 7 3 4 14 -6 23 -13 26 -13 6z"/>
<path d="M6730 5186 c0 -4 10 -27 22 -50 28 -52 27 -50 32 -45 3 3 -8 27 -24
54 -16 28 -30 46 -30 41z"/>
<path d="M6681 4944 c0 -11 3 -14 6 -6 3 7 2 16 -1 19 -3 4 -6 -2 -5 -13z"/>
<path d="M6166 4877 c3 -10 9 -15 12 -12 3 3 0 11 -7 18 -10 9 -11 8 -5 -6z"/>
<path d="M6340 4770 c6 -11 13 -20 16 -20 2 0 0 9 -6 20 -6 11 -13 20 -16 20
-2 0 0 -9 6 -20z"/>
<path d="M6312 4760 c0 -14 2 -19 5 -12 2 6 2 18 0 25 -3 6 -5 1 -5 -13z"/>
<path d="M6380 4701 c0 -16 77 -148 91 -157 5 -3 -4 16 -21 43 -16 26 -39 66
-50 88 -11 22 -20 34 -20 26z"/>
<path d="M6571 4696 c-14 -17 -1 -28 19 -16 11 7 12 12 4 20 -8 8 -14 7 -23
-4z"/>
<path d="M6470 4676 c0 -3 9 -10 20 -16 11 -6 20 -8 20 -6 0 3 -9 10 -20 16
-11 6 -20 8 -20 6z"/>
<path d="M6550 4640 c0 -5 5 -10 11 -10 5 0 7 5 4 10 -3 6 -8 10 -11 10 -2 0
-4 -4 -4 -10z"/>
<path d="M6490 4510 c6 -11 13 -20 16 -20 2 0 0 9 -6 20 -6 11 -13 20 -16 20
-2 0 0 -9 6 -20z"/>
<path d="M6124 7728 l-19 -23 23 19 c21 18 27 26 19 26 -2 0 -12 -10 -23 -22z"/>
<path d="M6180 7692 c-19 -17 -21 -21 -6 -15 14 5 17 3 11 -6 -4 -7 11 -1 34
14 22 15 41 29 41 30 0 12 -60 -5 -80 -23z m40 14 c0 -2 -8 -10 -17 -17 -16
-13 -17 -12 -4 4 13 16 21 21 21 13z"/>
<path d="M4987 6413 c-14 -13 -6 -40 18 -63 14 -13 23 -30 20 -38 -3 -7 0 -10
6 -7 6 4 9 1 7 -6 -3 -16 15 -26 20 -11 1 5 -13 29 -33 52 -27 32 -33 45 -23
51 9 6 10 11 2 19 -6 6 -13 7 -17 3z"/>
<path d="M5147 5963 c3 -26 13 -58 20 -70 8 -12 12 -26 9 -31 -3 -5 3 -17 14
-27 18 -17 19 -16 14 11 -3 16 -7 39 -8 50 -2 12 -10 32 -19 45 -10 13 -17 31
-17 41 0 9 -4 20 -10 23 -6 4 -7 -11 -3 -42z"/>
<path d="M4810 5980 c0 -5 5 -10 11 -10 5 0 7 5 4 10 -3 6 -8 10 -11 10 -2 0
-4 -4 -4 -10z"/>
<path d="M5036 5967 c3 -10 9 -15 12 -12 3 3 0 11 -7 18 -10 9 -11 8 -5 -6z"/>
<path d="M5280 5849 c0 -5 10 -9 22 -9 12 0 18 3 14 7 -10 11 -36 12 -36 2z"/>
<path d="M5166 5827 c3 -10 9 -15 12 -12 3 3 0 11 -7 18 -10 9 -11 8 -5 -6z"/>
<path d="M5180 5791 c0 -6 4 -13 10 -16 6 -3 7 1 4 9 -7 18 -14 21 -14 7z"/>
<path d="M5140 5781 c0 -6 4 -13 10 -16 6 -3 7 1 4 9 -7 18 -14 21 -14 7z"/>
<path d="M5273 5775 c0 -8 4 -12 9 -9 5 3 6 10 3 15 -9 13 -12 11 -12 -6z"/>
<path d="M5235 5717 c-12 -13 -8 -47 5 -47 4 0 7 -14 6 -31 -3 -35 4 -42 24
-28 12 8 12 12 3 16 -7 2 -13 13 -13 23 0 10 -4 22 -10 25 -5 3 -10 13 -10 21
0 8 4 12 10 9 6 -3 7 1 4 9 -7 19 -6 19 -19 3z"/>
<path d="M5020 5686 c0 -2 7 -9 15 -16 9 -7 15 -8 15 -2 0 5 -7 12 -15 16 -8
3 -15 4 -15 2z"/>
<path d="M4923 5655 c0 -8 4 -12 9 -9 5 3 6 10 3 15 -9 13 -12 11 -12 -6z"/>
<path d="M5400 5601 c0 -6 4 -13 10 -16 6 -3 7 1 4 9 -7 18 -14 21 -14 7z"/>
<path d="M5090 5573 c0 -6 8 -17 18 -24 16 -13 16 -13 2 6 -8 11 -16 22 -17
24 -2 2 -3 0 -3 -6z"/>
<path d="M5300 5571 c0 -5 5 -13 10 -16 6 -3 10 -2 10 4 0 5 -4 13 -10 16 -5
3 -10 2 -10 -4z"/>
<path d="M5066 5544 c18 -14 18 -15 -6 -9 -24 6 -24 5 -6 -9 15 -12 22 -13 27
-4 9 14 -7 38 -24 38 -6 0 -2 -7 9 -16z"/>
<path d="M5410 5540 c0 -5 5 -10 11 -10 5 0 7 5 4 10 -3 6 -8 10 -11 10 -2 0
-4 -4 -4 -10z"/>
<path d="M5481 5534 c0 -11 3 -14 6 -6 3 7 2 16 -1 19 -3 4 -6 -2 -5 -13z"/>
<path d="M5500 5508 c0 -4 4 -8 9 -8 6 0 12 4 15 8 3 5 -1 9 -9 9 -8 0 -15 -4
-15 -9z"/>
<path d="M5391 5505 c1 -19 18 -51 18 -35 0 8 -4 22 -9 30 -5 8 -9 11 -9 5z"/>
<path d="M5467 5479 c3 -11 8 -17 11 -14 3 2 12 -1 20 -8 13 -11 14 -9 1 10
-18 30 -38 37 -32 12z"/>
<path d="M5236 5347 c3 -10 9 -15 12 -12 3 3 0 11 -7 18 -10 9 -11 8 -5 -6z"/>
<path d="M4706 5296 c3 -8 12 -17 20 -20 12 -4 12 -2 4 14 -12 23 -32 27 -24
6z"/>
<path d="M4785 5251 c-6 -11 33 -36 42 -27 3 3 -2 8 -11 12 -9 3 -13 10 -10
15 3 5 1 9 -5 9 -5 0 -12 -4 -16 -9z"/>
<path d="M5349 5198 c24 -32 45 -58 48 -58 7 0 -59 89 -76 103 -8 7 5 -14 28
-45z"/>
<path d="M4447 5229 c7 -7 15 -10 18 -7 3 3 -2 9 -12 12 -14 6 -15 5 -6 -5z"/>
<path d="M5227 5191 c-13 -22 -14 -32 -6 -37 7 -4 9 -3 6 3 -4 6 0 14 9 17 12
5 15 2 10 -11 -6 -15 -5 -16 5 -5 10 9 10 15 2 23 -6 6 -9 18 -6 25 9 24 -2
15 -20 -15z"/>
<path d="M4830 5191 c5 -11 15 -23 21 -27 6 -3 3 5 -6 20 -20 30 -30 35 -15 7z"/>
<path d="M5280 5186 c0 -2 8 -10 18 -17 15 -13 16 -12 3 4 -13 16 -21 21 -21
13z"/>
<path d="M5626 5137 c3 -10 9 -15 12 -12 3 3 0 11 -7 18 -10 9 -11 8 -5 -6z"/>
<path d="M5246 5132 c-2 -4 -1 -14 4 -22 7 -11 9 -9 7 8 -1 24 -3 26 -11 14z"/>
<path d="M5285 5130 c-3 -5 -1 -10 4 -10 6 0 11 5 11 10 0 6 -2 10 -4 10 -3 0
-8 -4 -11 -10z"/>
<path d="M5412 5106 c7 -8 15 -12 17 -11 5 6 -10 25 -20 25 -5 0 -4 -6 3 -14z"/>
<path d="M5290 5097 c0 -9 12 -29 26 -44 l26 -28 -23 40 c-29 51 -29 51 -29
32z"/>
<path d="M5340 5060 c12 -16 24 -30 26 -30 3 0 -4 14 -16 30 -12 17 -24 30
-26 30 -3 0 4 -13 16 -30z"/>
<path d="M5440 5079 c0 -3 11 -20 25 -39 14 -19 25 -30 25 -24 -1 10 -50 73
-50 63z"/>
<path d="M5210 5056 c0 -8 9 -24 21 -37 11 -13 18 -18 14 -11 -3 6 -1 12 6 12
16 0 1 15 -14 15 -7 0 -11 8 -11 18 1 9 -2 17 -7 17 -5 0 -9 -6 -9 -14z"/>
<path d="M5076 4995 c4 -8 8 -15 10 -15 2 0 4 7 4 15 0 8 -4 15 -10 15 -5 0
-7 -7 -4 -15z"/>
<path d="M5370 4980 c0 -5 5 -10 11 -10 5 0 7 5 4 10 -3 6 -8 10 -11 10 -2 0
-4 -4 -4 -10z"/>
<path d="M5510 4941 c0 -6 4 -13 10 -16 6 -3 7 1 4 9 -7 18 -14 21 -14 7z"/>
<path d="M5101 4900 c23 -41 69 -91 69 -74 0 5 -12 20 -26 33 -14 13 -32 37
-40 53 -8 15 -17 28 -20 28 -3 0 5 -18 17 -40z"/>
<path d="M5248 4863 c7 -3 16 -2 19 1 4 3 -2 6 -13 5 -11 0 -14 -3 -6 -6z"/>
<path d="M4705 4819 c2 -22 25 -51 25 -31 0 7 -4 12 -10 12 -5 0 -7 6 -4 14 3
8 1 16 -4 20 -5 3 -8 -4 -7 -15z"/>
<path d="M4744 4803 c9 -16 25 -39 36 -53 23 -26 19 -18 -19 43 -27 43 -39 50
-17 10z"/>
<path d="M5210 4655 c0 -5 5 -17 10 -25 5 -8 10 -10 10 -5 0 6 -5 17 -10 25
-5 8 -10 11 -10 5z"/>
<path d="M5841 4635 c0 -5 8 -26 19 -45 11 -19 19 -30 19 -25 0 6 -8 26 -19
45 -11 19 -19 31 -19 25z"/>
<path d="M5240 4585 c0 -5 5 -17 10 -25 5 -8 10 -10 10 -5 0 6 -5 17 -10 25
-5 8 -10 11 -10 5z"/>
<path d="M4880 4532 c6 -13 14 -21 18 -18 3 4 -2 14 -12 24 -18 16 -18 16 -6
-6z"/>
<path d="M5865 4520 c10 -11 20 -20 23 -20 3 0 -3 9 -13 20 -10 11 -20 20 -23
20 -3 0 3 -9 13 -20z"/>
<path d="M4201 4245 c0 -5 6 -21 14 -35 8 -14 14 -20 14 -15 0 6 -6 21 -14 35
-8 14 -14 21 -14 15z"/>
<path d="M8807 4046 c-14 -11 -15 -15 -3 -19 8 -3 16 2 19 14 3 10 4 19 4 19
-1 0 -10 -7 -20 -14z"/>
<path d="M5461 3161 c-10 -7 -5 -17 24 -47 l37 -39 -27 37 c-15 20 -24 42 -20
48 8 12 4 12 -14 1z"/>
<path d="M5531 3053 c7 -12 15 -20 18 -17 3 2 -3 12 -13 22 -17 16 -18 16 -5
-5z"/>
<path d="M5730 2981 c0 -7 -7 -11 -14 -8 -10 4 -13 1 -9 -9 3 -7 9 -14 13 -14
10 0 22 31 15 38 -3 3 -5 0 -5 -7z"/>
<path d="M5607 2919 c24 -45 68 -89 90 -89 4 0 0 5 -9 11 -10 5 -36 37 -58 69
-23 33 -43 60 -45 60 -2 0 8 -23 22 -51z"/>
<path d="M5542 2940 c0 -14 2 -19 5 -12 2 6 2 18 0 25 -3 6 -5 1 -5 -13z"/>
<path d="M5697 2934 c-8 -8 12 -61 29 -75 12 -10 13 -9 7 7 -3 10 -12 28 -20
40 -7 11 -10 24 -6 27 3 4 4 7 1 7 -2 0 -7 -3 -11 -6z"/>
<path d="M5733 2917 c-1 -11 3 -29 8 -40 15 -26 34 -6 25 26 -8 32 -31 42 -33
14z"/>
<path d="M5780 2890 c0 -5 5 -10 11 -10 5 0 7 5 4 10 -3 6 -8 10 -11 10 -2 0
-4 -4 -4 -10z"/>
<path d="M5676 2881 c-4 -5 -2 -12 3 -15 5 -4 12 -2 15 3 4 5 2 12 -3 15 -5 4
-12 2 -15 -3z"/>
<path d="M3446 2725 c4 -8 8 -15 10 -15 2 0 4 7 4 15 0 8 -4 15 -10 15 -5 0
-7 -7 -4 -15z"/>
</g>
</svg>
